<svg width="85" height="83" viewBox="0 0 85 83" fill="none" xmlns="http://www.w3.org/2000/svg">
<path id="Vector" d="M55.2328 39.2012L55.0269 39.1485C54.482 39.0094 54.088 38.9093 53.7796 38.7555C53.4692 38.6006 53.2136 38.3782 53.0214 38.0958C52.9284 37.9599 52.8461 37.8092 52.7626 37.6617C52.5049 37.2043 52.2135 36.6869 51.7034 36.2991C51.1552 35.8818 50.5417 35.767 50.0009 35.6648C49.8119 35.6289 49.607 35.5921 49.3852 35.5351C49.0864 35.4582 48.759 35.3497 48.4147 35.2359C47.8602 35.0525 47.2329 34.846 46.5834 34.71C45.4375 34.4719 44.2906 34.4645 43.1722 34.6879C42.0485 34.9124 40.9956 35.3718 40.2067 35.9809C39.44 36.5742 38.9573 37.2707 38.5697 37.8303L38.3173 38.1928C38.0227 38.6132 37.7449 39.0105 37.4872 39.452C37.2169 39.9136 36.8409 40.6322 36.6899 41.5374C36.5146 42.5838 36.6941 43.5722 37.2232 44.4774C37.7777 45.4258 38.7387 46.3152 39.4484 46.8927C39.5857 47.0054 39.7188 47.1087 39.8455 47.2088C40.3165 47.5787 40.552 47.7704 40.739 48.0876C41.022 48.5692 41.2512 49.4027 41.2818 50.0708C41.3071 50.6219 41.1962 51.1014 41.079 51.6083L41.0072 51.9233C40.8509 52.6336 40.7199 53.484 40.928 54.4018C41.248 55.816 42.1372 56.7201 43.2472 56.7633C43.2757 56.7644 43.3032 56.7654 43.3317 56.7654C44.2463 56.7654 45.146 56.1869 46.2349 54.9023C46.4398 54.661 46.6425 54.4039 46.8464 54.1447C47.2635 53.6157 47.6934 53.0688 48.0809 52.7685C48.4527 52.4797 48.9026 52.3354 49.4729 52.152C49.6778 52.0856 49.8858 52.0192 50.096 51.9444C51.076 51.5956 52.0783 51.0856 53.1608 50.3869C53.9898 49.8516 55.5 48.7979 56.291 47.7546C56.8539 47.0128 57.0092 46.351 57.1222 45.8673C57.1539 45.7314 57.1813 45.5997 57.2299 45.4701C57.3007 45.2846 57.4559 45.038 57.6207 44.7777C57.8087 44.4806 58.0209 44.1434 58.1931 43.764C58.7518 42.5301 58.6578 41.3477 57.9375 40.5216C57.288 39.7766 56.2446 39.4615 55.2328 39.2012ZM55.6922 42.6365C55.5993 42.843 55.4536 43.0727 55.2994 43.3172C55.0808 43.6629 54.8326 44.0559 54.6647 44.4974C54.5612 44.7693 54.502 45.0212 54.4503 45.2425C54.3647 45.6049 54.314 45.8231 54.1028 46.1023C53.7216 46.605 52.789 47.3658 51.6696 48.0887C50.7539 48.6798 49.9608 49.0855 49.1719 49.3669C48.9892 49.4322 48.8086 49.4902 48.6301 49.5471C47.9352 49.7705 47.1484 50.0234 46.3954 50.6082C45.7438 51.1141 45.2073 51.7948 44.6888 52.4534C44.5061 52.6863 44.3233 52.917 44.1396 53.1341C43.9136 53.4007 43.7298 53.5904 43.5851 53.7263C43.5228 53.3733 43.5788 52.9813 43.6823 52.5071L43.7467 52.2226C43.8861 51.6199 44.0593 50.8685 44.0171 49.9423C43.9653 48.8316 43.6052 47.5586 43.0983 46.6988C42.6399 45.9221 42.0791 45.4817 41.5353 45.0559C41.4222 44.9674 41.304 44.8747 41.1804 44.7735C40.4475 44.175 39.8518 43.549 39.5878 43.097C39.3819 42.745 39.3206 42.4026 39.3903 41.9863C39.4495 41.6312 39.592 41.274 39.8518 40.8293C40.0536 40.4836 40.2891 40.1475 40.5615 39.7576L40.8224 39.3835C41.1456 38.9167 41.4508 38.4762 41.8817 38.1422C42.3358 37.7913 43.0011 37.5099 43.7066 37.3687C44.0699 37.2971 44.4374 37.2602 44.8092 37.2602C45.2105 37.2602 45.616 37.3023 46.0216 37.3866C46.5179 37.4899 47.0428 37.6627 47.5518 37.8313C47.9595 37.9651 48.3481 38.0926 48.7019 38.1833C48.986 38.256 49.249 38.3066 49.4908 38.3519C49.6957 38.3909 49.9777 38.4436 50.0305 38.4667C50.1087 38.5384 50.265 38.8155 50.3685 38.9999C50.4899 39.216 50.6145 39.433 50.7497 39.6322C51.2091 40.3066 51.8143 40.8345 52.5493 41.2013C53.1206 41.4858 53.6888 41.6312 54.3457 41.7987L54.5474 41.8504C54.803 41.9157 55.5359 42.1033 55.8042 42.2708C55.7978 42.3446 55.7683 42.4689 55.6922 42.6365ZM37.7206 70.1609C37.5749 70.7942 37.0109 71.2231 36.3857 71.2231C36.2843 71.2231 36.1808 71.2115 36.0773 71.1883C31.5351 70.1493 26.7763 69.6224 21.9351 69.6224C17.094 69.6224 12.3363 70.1493 7.79294 71.1883C7.05579 71.358 6.31969 70.8975 6.15071 70.1609C5.98174 69.4243 6.44219 68.6909 7.18041 68.5223C11.9244 67.4369 16.8881 66.8868 21.9351 66.8868C26.9822 66.8868 31.9469 67.4369 36.6899 68.5223C37.4281 68.6909 37.8896 69.4243 37.7206 70.1609ZM84.0812 29.2484C80.5211 28.0102 76.7392 27.1124 72.8369 26.5412C70.8673 11.5851 58.0188 0 42.5005 0C26.9822 0 14.1338 11.5851 12.1641 26.5412C8.26185 27.1124 4.47997 28.0112 0.919861 29.2484C0.369634 29.4402 0 29.9576 0 30.5403V81.6322C0 82.0632 0.202771 82.4689 0.549171 82.7271C0.788905 82.9062 1.07828 83 1.37081 83C1.49966 83 1.62956 82.9821 1.75523 82.9452C8.18159 81.0716 15.023 80.1211 22.0883 80.1211C29.0406 80.1211 35.7806 81.0421 42.1214 82.8588C42.1425 82.8651 42.1647 82.8641 42.1858 82.8693C42.2386 82.882 42.2904 82.8894 42.3442 82.8957C42.397 82.902 42.4498 82.9062 42.5026 82.9062C42.5523 82.9062 42.6019 82.902 42.6516 82.8957C42.7075 82.8894 42.7624 82.882 42.8174 82.8683C42.8374 82.863 42.8585 82.8641 42.8786 82.8577C49.2194 81.0411 55.9594 80.1201 62.9117 80.1201C69.9781 80.1201 76.8184 81.0706 83.2448 82.9442C83.3715 82.981 83.5003 82.999 83.6292 82.999C83.9217 82.999 84.2111 82.9052 84.4508 82.726C84.7962 82.4679 85 82.0621 85 81.6312V30.5392C85.0011 29.9576 84.6314 29.4391 84.0812 29.2484ZM70.3657 30.5392C70.3657 37.5563 67.7423 43.9685 63.4292 48.8664C63.6278 48.2141 63.82 47.6018 63.9995 47.0655C64.6279 45.1866 65.1137 44.1634 65.5076 43.411C65.6375 43.1623 65.7695 42.921 65.8973 42.686C66.2902 41.9652 66.6619 41.2845 66.8953 40.5669C67.2787 39.3877 67.2502 38.2391 66.8182 37.4941C66.3736 36.728 65.6396 36.5278 65.2446 36.4203C65.1718 36.4003 65.0968 36.3824 65.0239 36.355C64.8011 36.2696 64.6184 36.0452 64.5043 35.8713C64.2445 35.4751 64.0344 34.8966 63.9129 34.2422C63.7746 33.5003 63.7323 32.5899 63.7122 31.4497C63.6922 30.338 63.6975 29.1883 63.8696 28.3137C63.9699 27.8037 64.14 27.3295 64.3037 26.8711C64.4325 26.5117 64.5656 26.1408 64.6638 25.7562C64.9077 24.8078 64.932 23.8036 64.7335 22.9268C64.6226 22.4358 64.4547 22.0343 64.3068 21.6802C64.2308 21.499 64.1547 21.3198 64.0935 21.1291C63.9784 20.7708 63.9066 20.3219 63.8231 19.8024L63.7545 19.3767C63.6056 18.4873 63.3944 17.4715 62.7734 16.6748C62.353 16.1363 61.8356 15.8076 61.3783 15.5188C61.1998 15.4061 61.0192 15.2944 60.8523 15.1637C60.4859 14.8771 60.1986 14.4861 60.0634 14.092C59.9145 13.66 59.9145 13.1173 59.9145 12.5925C59.9145 11.9529 59.9145 11.4007 59.8691 10.8591C59.8216 10.2911 59.7286 9.7895 59.5554 8.87799C59.5343 8.76524 59.5111 8.64616 59.4868 8.52077C66.0969 13.6105 70.3657 21.5854 70.3657 30.5392ZM42.5005 58.3439C27.1354 58.3439 14.6354 45.8716 14.6354 30.5392C14.6354 24.3694 16.6631 18.6643 20.0838 14.0467C20.0732 14.2396 20.0659 14.4345 20.0468 14.6242C19.9212 15.8613 19.6001 17.0689 19.3023 18.0858L19.2358 18.3124C18.9675 19.2207 18.7563 19.9383 18.7806 20.9521C18.7996 21.7982 18.9823 22.8541 19.3709 24.3779C19.6593 25.5064 19.993 26.635 20.3352 27.6414C20.7101 28.7394 21.085 29.6446 21.6996 30.4929C22.2034 31.1884 22.8972 31.8849 23.8224 32.6236C24.4624 33.1347 25.0686 33.552 25.9462 33.9271C26.319 34.0862 26.7488 34.2411 27.2008 34.4034C27.6169 34.552 28.0521 34.7079 28.4734 34.8839C29.2645 35.2148 30.028 35.631 30.8813 36.0979C31.779 36.5889 32.7971 37.1453 33.7751 37.3508C34.0718 37.413 34.3686 37.4435 34.6601 37.4435C35.4099 37.4435 36.1154 37.2412 36.6476 36.8576C37.4524 36.277 37.7861 35.3086 37.4989 34.3886C37.2718 33.6647 36.729 33.1726 36.2801 32.8249C36.1143 32.6963 35.9337 32.5667 35.7436 32.4329C35.5218 32.2748 35.2842 32.1083 35.0476 31.9144C34.8692 31.769 34.6917 31.6088 34.5164 31.4518C34.2366 31.201 33.962 30.9586 33.7032 30.7647C33.5258 30.632 33.3547 30.5203 33.1847 30.4117C32.9671 30.2716 32.8098 30.1715 32.6471 30.0166C32.4074 29.789 32.0378 29.3285 31.7241 28.7215C31.5541 28.3927 31.4759 28.1662 31.439 28.025C31.5044 27.9986 31.5942 27.9691 31.7114 27.9396C32.0177 27.8627 32.1444 27.8827 32.2691 27.9164C32.4803 27.9712 32.7031 28.0903 32.8964 28.2515C33.0115 28.3474 33.1203 28.4559 33.2375 28.5708C33.4793 28.809 33.7814 29.1051 34.1838 29.3991C34.4087 29.5624 35.581 30.3812 36.6117 30.4307C37.4334 30.4697 38.3934 30.025 38.6373 28.653C38.7281 28.1388 38.7176 27.6435 38.6743 27.0586L38.6584 26.851C38.6246 26.4243 38.5813 25.8942 38.6521 25.5444C38.7186 25.2124 38.9394 24.8752 39.3576 24.2598C39.7103 23.7382 40.3672 22.7688 40.965 22.0079C41.5152 21.3082 42.0126 20.7866 42.4847 20.4125C42.9356 20.0553 43.4257 19.7845 44.2325 19.4483L44.6074 19.2945C45.5959 18.893 46.6193 18.4768 47.1896 17.7655C48.2277 16.4714 47.3512 15.052 46.8812 14.2891C46.3437 13.4187 45.6382 12.3691 45.1408 11.641L45.0626 11.5261C44.58 10.8222 44.1987 10.2669 44.0467 9.74208C44.0034 9.59455 43.978 9.44808 43.9643 9.31425C44.2579 9.45967 44.6032 9.66305 44.995 9.92438C45.5611 10.3006 46.2095 10.7832 46.7809 11.2089L47.1516 11.484C47.8497 12.0003 48.9036 12.7822 50.0432 12.112C50.8743 11.6241 51.2714 10.5387 51.4583 9.71468C51.6125 9.035 51.6305 8.42487 51.6474 7.8864L51.6537 7.6767C51.6706 7.18564 51.7034 6.61766 51.8269 5.79994C51.8882 5.39424 51.9716 4.92215 52.0667 4.42161C53.5357 4.95903 54.9435 5.6229 56.2847 6.38899C56.5065 7.53338 56.7177 8.62614 56.8645 9.39118C57.0335 10.2753 57.1053 10.6768 57.1391 11.0856C57.175 11.5156 57.175 12.0151 57.175 12.5936C57.175 13.2733 57.175 14.1184 57.4728 14.9835C57.7801 15.875 58.379 16.7033 59.1605 17.3166C59.3991 17.5041 59.6558 17.6685 59.9103 17.8308C60.2049 18.0173 60.4827 18.1933 60.6105 18.3566C60.8576 18.6728 60.9886 19.4536 61.0509 19.8277L61.1164 20.2334C61.2125 20.8383 61.3043 21.4094 61.4828 21.9668C61.5684 22.2324 61.6719 22.4832 61.7764 22.734C61.8968 23.0217 62.0014 23.2703 62.0594 23.5306C62.164 23.9922 62.1461 24.5412 62.0077 25.0776C61.9401 25.3389 61.8345 25.6361 61.7215 25.9501C61.5325 26.478 61.3181 27.0766 61.1776 27.7878C60.9453 28.9691 60.9484 30.3222 60.9696 31.4992C60.9928 32.7753 61.0435 33.8165 61.2156 34.7427C61.4047 35.7585 61.7479 36.6669 62.2073 37.3687C62.6952 38.1137 63.313 38.6332 64.0449 38.9125C64.1695 38.9599 64.2942 38.9978 64.4188 39.0326C64.4114 39.1959 64.3786 39.432 64.2846 39.7218C64.1294 40.1981 63.8305 40.745 63.4852 41.3783C63.35 41.627 63.2106 41.883 63.0722 42.1465C62.4449 43.3478 61.9433 44.5607 61.3952 46.1993C60.8259 47.9032 60.1543 50.2394 59.4963 52.5472C54.7914 56.1774 48.8963 58.3439 42.5005 58.3439ZM42.5005 2.73558C44.8926 2.73558 47.2139 3.03801 49.4306 3.60705C49.3071 4.24668 49.1941 4.86525 49.1138 5.39424C48.9691 6.35106 48.93 7.03811 48.9121 7.58397L48.9047 7.80526C48.8899 8.27945 48.8783 8.69042 48.7822 9.11298C48.7706 9.16356 48.759 9.21204 48.7463 9.2584L48.421 9.01604C47.8518 8.59137 47.1421 8.06343 46.5158 7.64719C45.6646 7.08132 44.9486 6.70934 44.3255 6.51018C42.5121 5.92955 41.7475 7.07605 41.5564 7.44171C41.1529 8.2099 41.097 9.41225 41.4138 10.5029C41.6873 11.4481 42.2281 12.2363 42.8005 13.0709L42.8776 13.1837C43.3581 13.8865 44.0382 14.8971 44.5472 15.7222C44.6032 15.8128 44.7321 16.0215 44.8271 16.1996C44.487 16.3892 43.9178 16.62 43.5746 16.7602L43.1754 16.9235C42.1309 17.3598 41.4381 17.7497 40.7823 18.2681C40.1391 18.7771 39.4938 19.4473 38.8084 20.3187C38.1505 21.1554 37.4587 22.1776 37.087 22.7256C36.58 23.4727 36.1428 24.1186 35.9643 25.0059C35.8197 25.7288 35.8788 26.4717 35.9263 27.0671L35.9411 27.2589C35.9422 27.2683 35.9422 27.2768 35.9432 27.2863C35.8968 27.2546 35.8492 27.223 35.8028 27.1893C35.563 27.0144 35.3676 26.8226 35.1628 26.6203C34.9896 26.4496 34.8248 26.2904 34.6527 26.1471C34.1489 25.7288 33.5659 25.4253 32.9682 25.2683C32.343 25.1039 31.7505 25.1081 31.0471 25.2841C29.595 25.6466 29.0321 26.4074 28.8167 26.9817C28.5125 27.791 28.6667 28.7689 29.2877 29.9723C29.6932 30.7584 30.2297 31.4971 30.7599 31.9987C31.1095 32.3296 31.4368 32.5403 31.7009 32.71C31.8181 32.7848 31.9364 32.8607 32.0589 32.9513C32.2595 33.102 32.4697 33.2927 32.6862 33.4866C32.8922 33.6721 33.1034 33.8597 33.3125 34.0304C33.567 34.238 33.8215 34.4234 34.0634 34.5952C33.5121 34.4139 32.814 34.0325 32.1529 33.67C31.2795 33.1937 30.4557 32.7427 29.5327 32.357C29.068 32.162 28.5864 31.9892 28.127 31.8248C27.7299 31.6826 27.3519 31.5487 27.0255 31.4086C26.4911 31.1799 26.1152 30.946 25.5354 30.4834C24.8162 29.9091 24.2733 29.3717 23.9217 28.8859C23.5056 28.3116 23.2341 27.6445 22.93 26.7552C22.61 25.8163 22.2974 24.7583 22.027 23.6982C21.819 22.8815 21.5402 21.7023 21.5212 20.8836C21.5074 20.2956 21.6342 19.8635 21.8654 19.0795L21.933 18.8477C22.2657 17.7107 22.6248 16.3524 22.7726 14.895C22.9078 13.5683 22.8561 12.2205 22.7853 10.9023C27.8345 5.86211 34.809 2.73558 42.5005 2.73558ZM2.74163 79.8313V31.5203C5.67124 30.5603 8.75294 29.8395 11.9233 29.3422C11.9075 29.7394 11.8927 30.1378 11.8927 30.5392C11.8927 33.1852 12.2328 35.7533 12.8696 38.2022C10.9422 38.4636 9.03491 38.806 7.18041 39.2297C6.44219 39.3983 5.98174 40.1317 6.15071 40.8683C6.29645 41.5016 6.86041 41.9305 7.48562 41.9305C7.587 41.9305 7.6905 41.9189 7.794 41.8957C9.71293 41.4563 11.6942 41.1117 13.6955 40.8556C14.5541 43.234 15.6978 45.4764 17.0887 47.5407C13.7113 47.7799 10.3878 48.2594 7.18146 48.9928C6.44325 49.1614 5.98279 49.8948 6.15177 50.6314C6.29751 51.2647 6.86146 51.6936 7.48667 51.6936C7.58806 51.6936 7.69156 51.682 7.79506 51.6588C11.4301 50.8274 15.2236 50.3332 19.0784 50.1667C21.0713 52.5303 23.4158 54.5852 26.0317 56.2585C24.6725 56.1763 23.3081 56.13 21.9373 56.13C16.8881 56.13 11.9244 56.68 7.18252 57.7654C6.44431 57.934 5.98385 58.6685 6.15282 59.404C6.3218 60.1406 7.0579 60.599 7.79506 60.4315C12.3363 59.3925 17.094 58.8656 21.9373 58.8656C26.7224 58.8656 31.4516 59.3925 35.9929 60.4315C36.0964 60.4546 36.1988 60.4662 36.3012 60.4662C36.3202 60.4662 36.3361 60.4578 36.3551 60.4567C37.9076 60.7739 39.5044 60.9689 41.1318 61.0416V79.7512C35.0614 78.1801 28.6646 77.3845 22.0914 77.3845C15.4011 77.3845 8.9029 78.2064 2.74163 79.8313ZM82.2594 79.8313C76.0992 78.2075 69.6 77.3845 62.9128 77.3845C56.3396 77.3845 49.9428 78.1801 43.8724 79.7512V61.0448C45.4977 60.9731 47.0924 60.7782 48.6438 60.461C48.7653 60.4662 48.8878 60.462 49.0114 60.4336C53.5526 59.3946 58.2807 58.8677 63.067 58.8677C67.9102 58.8677 72.668 59.3946 77.2092 60.4336C77.3127 60.4568 77.4151 60.4683 77.5175 60.4683C78.1417 60.4683 78.7067 60.0395 78.8525 59.4061C79.0214 58.6696 78.561 57.9361 77.8228 57.7675C73.0809 56.6822 68.1172 56.1321 63.068 56.1321C61.6983 56.1321 60.3327 56.1774 58.9746 56.2607C61.4723 54.6621 63.7218 52.7137 65.6555 50.4818L77.376 51.6884C77.4236 51.6936 77.4711 51.6957 77.5175 51.6957C78.1808 51.6957 78.7585 51.2173 78.8683 50.5513C78.9866 49.8379 78.5282 49.1561 77.8228 48.9949C74.6164 48.2604 71.2929 47.782 67.9155 47.5428C69.2578 45.5523 70.3699 43.3973 71.2179 41.1138L77.337 41.921C77.3972 41.9294 77.4584 41.9326 77.5175 41.9326C78.1713 41.9326 78.7458 41.4658 78.8651 40.8071C78.995 40.0885 78.5356 39.394 77.8228 39.2307C75.9693 38.806 74.062 38.4636 72.1336 38.2033C72.7704 35.7533 73.1105 33.1852 73.1105 30.5403C73.1105 30.1388 73.0957 29.7405 73.0798 29.3432C76.2502 29.8416 79.3319 30.5614 82.2615 31.5213V79.8313H82.2594ZM78.8493 70.1609C78.7035 70.7942 78.1396 71.2231 77.5144 71.2231C77.413 71.2231 77.3095 71.2115 77.206 71.1883C72.6637 70.1493 67.906 69.6224 63.0638 69.6224C58.2226 69.6224 53.4639 70.1493 48.9216 71.1883C48.1844 71.358 47.4483 70.8975 47.2794 70.1609C47.1104 69.4243 47.5709 68.6909 48.3091 68.5223C53.0531 67.4369 58.0167 66.8868 63.0638 66.8868C68.1109 66.8868 73.0756 67.4369 77.8185 68.5223C78.5578 68.6909 79.0193 69.4243 78.8493 70.1609Z" fill="#0393AA"/>
</svg>
