<svg width="126" height="82" viewBox="0 0 126 82" fill="none" xmlns="http://www.w3.org/2000/svg">
<path d="M103.242 47.7136C104.539 56.9868 103.949 69.2281 102.314 75.6845C96.0655 76.6382 75.1741 76.806 70.6279 76.1178C70.4918 76.0972 70.3557 76.0814 70.1518 76.0607C69.2672 75.9709 68.9856 75.9271 68.5755 75.7847C67.0848 75.2669 66.2631 73.6894 66.4317 69.8122C66.45 69.3903 66.251 68.9883 65.9043 68.7471C63.1811 66.8525 62.7483 64.6694 63.7786 61.1366C63.9819 60.4394 63.5413 59.7185 62.8281 59.5814C60.9612 59.2226 59.7581 54.0511 61.3493 52.6813C61.9014 52.2059 61.9228 51.3579 61.3954 50.8553C60.6928 50.1857 59.9885 48.3256 59.9872 46.8307C59.9848 44.0504 61.0224 42.7185 63.7647 42.2561C65.281 42.0004 67.0002 41.8375 68.8834 41.7592C71.9866 41.6302 75.3243 41.7337 78.5862 41.9852C79.3825 42.0466 80.1108 42.1124 80.7554 42.178C81.1399 42.2172 81.4095 42.2474 81.5484 42.2643C82.0431 42.3243 82.5253 42.0804 82.7702 41.6463C82.853 41.4994 82.9167 41.3163 82.9616 41.0881C83.2178 39.7856 82.9045 37.0852 81.6571 32.2885C80.2711 26.959 83.8351 21.8278 88.1627 19.8837C89.2522 19.3942 90.0684 19.5735 90.7839 20.1888C90.9134 20.3001 91.0222 20.4107 91.1081 20.5084C91.097 20.7333 91.0861 20.9798 91.0757 21.2441C91.0316 22.3731 91.0102 23.5186 91.0239 24.5925C91.0353 25.4869 91.0709 26.2863 91.1352 26.97C91.541 31.2867 92.336 33.7068 94.8356 38.5249C95.6891 40.1624 97.0101 41.8646 98.6745 43.5963C99.7019 44.6652 100.799 45.6815 101.896 46.6143C102.28 46.9409 102.637 47.2342 102.958 47.4901C103.072 47.5802 103.167 47.655 103.242 47.7136ZM103.091 44.3911C102.188 43.6051 101.292 42.763 100.451 41.8884C98.9358 40.3114 97.7492 38.7824 97.0119 37.3679C94.66 32.8345 93.9624 30.7106 93.589 26.7393C93.5317 26.1302 93.499 25.3942 93.4883 24.5611C93.4753 23.5351 93.496 22.4301 93.5385 21.3403C93.5588 20.8221 93.5789 20.4276 93.5922 20.2087C93.6071 19.9611 93.547 19.7147 93.4197 19.5018C93.2255 19.1771 92.8873 18.747 92.3909 18.3201C90.9963 17.1208 89.1844 16.7227 87.1527 17.6355C81.8436 20.0206 77.5337 26.2256 79.2718 32.9088C80.1442 36.2634 80.5176 38.4454 80.5787 39.6838C80.0258 39.6304 79.4223 39.5777 78.7757 39.5278C75.4245 39.2694 71.9945 39.1631 68.781 39.2967C66.8014 39.379 64.982 39.5513 63.3549 39.8257C59.3828 40.4955 57.5191 42.8878 57.5225 46.8328C57.524 48.5158 58.1151 50.4319 58.9635 51.7373C57.2381 54.5547 58.4216 59.8006 61.1353 61.5086C60.2913 65.2055 60.9829 68.054 63.95 70.3679C63.8867 74.8149 65.2439 77.2366 67.7669 78.1129C68.425 78.3415 68.8184 78.4027 69.9031 78.5127C70.0696 78.5296 70.1729 78.5417 70.259 78.5547C74.8268 79.2462 94.1431 79.1291 101.679 78.2517C101.754 78.6541 102.027 79.0098 102.434 79.1724C108.955 81.7802 111.073 81.971 121.662 80.6618C122.144 80.6021 122.547 80.2638 122.689 79.7985C125.714 69.8851 125.331 58.8607 122.857 44.0506C122.737 43.3321 122.023 42.8739 121.32 43.064C115.577 44.6159 111.776 44.7522 104.207 43.9125C103.752 43.862 103.341 44.0632 103.091 44.3911ZM120.643 45.7836C122.799 59.1899 123.109 69.3491 120.557 78.3141C111.66 79.3948 109.54 79.2791 104.424 77.3068C106.412 70.562 107.13 56.6789 105.56 46.5328C111.837 47.151 115.671 47.0008 120.643 45.7836Z" fill="#0393AA" stroke="#0393AA"/>
<path d="M33.5999 43.3847C36.9408 43.3847 40.2066 42.3898 42.9845 40.5259C45.7624 38.662 47.9276 36.0127 49.2062 32.913C50.4849 29.8134 50.8196 26.4025 50.1681 23.1118C49.5166 19.8211 47.9081 16.7983 45.5461 14.4256C43.184 12.0529 40.1743 10.4369 36.8977 9.78188C33.6212 9.12688 30.2247 9.4623 27.138 10.7457C24.0512 12.0292 21.4127 14.203 19.556 16.9923C17.6994 19.7816 16.7081 23.0612 16.7073 26.4163C16.7115 30.9147 18.4925 35.2276 21.6594 38.4088C24.8264 41.59 29.1206 43.3795 33.5999 43.3847ZM33.5999 13.2976C36.1844 13.2974 38.711 14.067 40.86 15.509C43.009 16.9509 44.684 19.0005 45.673 21.3985C46.662 23.7966 46.9207 26.4353 46.4163 28.9809C45.9119 31.5266 44.6672 33.8649 42.8394 35.7C41.0117 37.5352 38.683 38.7848 36.1481 39.2908C33.6131 39.7968 30.9857 39.5364 28.598 38.5427C26.2104 37.5489 24.1699 35.8664 22.7345 33.7079C21.2991 31.5494 20.5334 29.0119 20.5341 26.4163C20.5393 22.9381 21.9176 19.6039 24.3669 17.1447C26.8161 14.6856 30.1365 13.3021 33.5999 13.2976ZM67.0571 70.4061L52.3807 44.8731C56.0059 41.1566 58.4568 36.4473 59.4257 31.3366C60.3946 26.2258 59.8382 20.9415 57.8264 16.1473C55.8146 11.3531 52.4371 7.26273 48.1181 4.38989C43.7991 1.51705 38.7312 -0.0101631 33.5508 5.08997e-05C28.3703 0.0102649 23.3084 1.55745 19.0007 4.4473C14.6929 7.33715 11.3315 11.4408 9.33845 16.2429C7.34542 21.045 6.80969 26.3315 7.79854 31.4384C8.78738 36.5453 11.2567 41.2449 14.8964 44.947L0.25631 70.407C0.0608114 70.7471 -0.0262401 71.1392 0.00687546 71.5305C0.0399911 71.9217 0.191683 72.2934 0.441531 72.5955C0.691379 72.8976 1.02739 73.1155 1.40432 73.22C1.78125 73.3245 2.181 73.3105 2.54976 73.1799C8.33743 71.1311 10.5796 71.2817 11.4413 71.7691C12.153 72.1714 12.412 73.2659 12.7772 75.0126C13.1842 76.9678 13.6919 79.4011 15.5373 81.389C15.7413 81.6087 15.9938 81.7773 16.2744 81.8813C16.5551 81.9852 16.8561 82.0217 17.1533 81.9876C17.4505 81.9536 17.7356 81.8501 17.9858 81.6854C18.2359 81.5206 18.4441 81.2993 18.5937 81.0391C18.8815 80.5377 19.4582 79.5423 20.2304 78.1998C25.5253 69.0168 30.9543 59.5831 33.6446 54.812L48.7197 81.0382C48.8695 81.2981 49.0777 81.5192 49.3278 81.6837C49.5779 81.8483 49.8628 81.9518 50.1599 81.9859C50.4571 82.0196 50.7581 81.9829 51.0387 81.879C51.3193 81.775 51.5719 81.6066 51.7761 81.3872C53.6215 79.4001 54.1292 76.9668 54.5363 75.0107C54.9014 73.2622 55.1604 72.1695 55.8721 71.7682C56.7338 71.2799 58.976 71.1302 64.7637 73.1789C65.1324 73.3096 65.5322 73.3236 65.9091 73.2191C66.286 73.1146 66.622 72.8967 66.8719 72.5946C67.1217 72.2925 67.2734 71.9208 67.3066 71.5295C67.3397 71.1382 67.2526 70.7462 67.0571 70.4061ZM33.5999 3.86389C38.0423 3.86389 42.3849 5.18688 46.0786 7.66555C49.7723 10.1442 52.6511 13.6672 54.3509 17.7891C56.0508 21.9109 56.4954 26.4464 55.6284 30.8219C54.7615 35.1975 52.622 39.2166 49.4805 42.371C46.339 45.5254 42.3365 47.6734 37.9794 48.5433C33.6223 49.4132 29.1061 48.966 25.0021 47.2582C20.8981 45.5504 17.3905 42.6587 14.9229 38.9489C12.4554 35.2391 11.1388 30.8777 11.1395 26.4163C11.1471 20.4368 13.5161 14.7043 17.7267 10.4765C21.9373 6.24865 27.6457 3.87057 33.5999 3.86389ZM16.9821 76.1698C16.8014 75.5486 16.6654 74.8937 16.5257 74.2248C16.0832 72.1031 15.582 69.6988 13.323 68.4247C11.6342 67.4695 9.33418 67.361 5.98343 68.144L17.8326 47.5318C21.5252 50.3251 25.8894 52.0851 30.4802 52.6322C27.3968 58.1013 20.1494 70.6662 16.9821 76.1698ZM53.9941 68.4209C51.7351 69.6988 51.234 72.104 50.7915 74.2211C50.6518 74.8881 50.512 75.5411 50.336 76.1604L36.8025 52.6229C41.3987 52.0585 45.7632 50.2787 49.4501 47.4654L61.3337 68.1403C57.983 67.3563 55.683 67.4639 53.9941 68.4209Z" fill="#0393AA"/>
<path d="M35.9403 33.4629H33.1003V24.3829H29.5803V22.2429C30.0736 22.2562 30.5469 22.2229 31.0003 22.1429C31.4669 22.0496 31.8803 21.8962 32.2403 21.6829C32.6136 21.4562 32.9269 21.1629 33.1803 20.8029C33.4336 20.4429 33.6003 19.9962 33.6803 19.4629H35.9403V33.4629Z" fill="#0393AA"/>
</svg>
