<svg width="98" height="102" viewBox="0 0 98 102" fill="none" xmlns="http://www.w3.org/2000/svg">
<path fill-rule="evenodd" clip-rule="evenodd" d="M36.4822 20.5668L34.863 18.6984C34.2374 17.9765 33.2438 17.9765 32.6182 18.6984L28.6805 23.2421V6.46838C28.6805 5.91634 28.2757 5.44922 27.7973 5.44922H2.88322C2.40481 5.44922 2 5.91634 2 6.46838V40.568C2 41.12 2.40481 41.5871 2.88322 41.5871H27.7973C28.2757 41.5871 28.6805 41.12 28.6805 40.568V32.1598L36.4822 23.1572C37.1078 22.4353 37.1078 21.2887 36.4822 20.5668ZM24.1908 34.4954L22.314 35.0899L22.8292 32.9242L23.1604 32.542L24.522 34.1132L24.1908 34.4954ZM25.7732 32.627L24.4116 31.0557L31.3301 23.1148L32.6918 24.686L25.7732 32.627ZM26.9141 39.5913H3.76643V7.48755H26.9141V25.2805L21.5412 31.5229C21.3572 31.7352 21.2099 32.0324 21.1363 32.3297L20.5107 35.0475C20.3635 35.642 20.5107 36.279 20.9155 36.7461C21.21 37.0858 21.578 37.2557 21.9828 37.2557C22.13 37.2557 22.2404 37.2557 22.3876 37.2132L24.706 36.4913C24.9636 36.4064 25.2212 36.2365 25.4052 36.0242L26.9509 34.2406V39.5913H26.9141ZM33.943 23.2421L32.5814 21.6709L33.759 20.312L35.1206 21.8833L33.943 23.2421Z" fill="#0393AA" stroke="#0393AA" stroke-width="0.5"/>
<path fill-rule="evenodd" clip-rule="evenodd" d="M11.9106 15.1711H22.0675C22.546 15.1711 22.9508 14.704 22.9508 14.152C22.9508 13.5999 22.546 13.1328 22.0675 13.1328H11.9106C11.4322 13.1328 11.0273 13.5999 11.0273 14.152C11.0273 14.704 11.3954 15.1711 11.9106 15.1711Z" fill="#0393AA" stroke="#0393AA" stroke-width="0.5"/>
<path fill-rule="evenodd" clip-rule="evenodd" d="M11.9106 21.4172H22.0675C22.546 21.4172 22.9508 20.9501 22.9508 20.3981C22.9508 19.846 22.546 19.3789 22.0675 19.3789H11.9106C11.4322 19.3789 11.0273 19.846 11.0273 20.3981C11.0273 20.9926 11.3954 21.4172 11.9106 21.4172Z" fill="#0393AA" stroke="#0393AA" stroke-width="0.5"/>
<path fill-rule="evenodd" clip-rule="evenodd" d="M11.9106 27.7024H22.0675C22.546 27.7024 22.9508 27.2353 22.9508 26.6832C22.9508 26.1312 22.5092 25.6641 22.0307 25.6641H11.9106C11.3954 25.6641 11.0273 26.0887 11.0273 26.6832C11.0273 27.2777 11.3954 27.7024 11.9106 27.7024Z" fill="#0393AA" stroke="#0393AA" stroke-width="0.5"/>
<path fill-rule="evenodd" clip-rule="evenodd" d="M17.4307 31.9043H11.9106C11.4322 31.9043 11.0273 32.3714 11.0273 32.9235C11.0273 33.4755 11.4322 33.9426 11.9106 33.9426H17.4307C17.9091 33.9426 18.3139 33.4755 18.3139 32.9235C18.3139 32.3714 17.9091 31.9043 17.4307 31.9043Z" fill="#0393AA" stroke="#0393AA" stroke-width="0.5"/>
<path d="M8.02178 15.7245C8.77379 15.7245 9.38341 15.021 9.38341 14.1532C9.38341 13.2855 8.77379 12.582 8.02178 12.582C7.26978 12.582 6.66016 13.2855 6.66016 14.1532C6.66016 15.021 7.26978 15.7245 8.02178 15.7245Z" fill="#0393AA" stroke="#0393AA" stroke-width="0.5"/>
<path d="M8.02178 21.9706C8.77379 21.9706 9.38341 21.2671 9.38341 20.3993C9.38341 19.5316 8.77379 18.8281 8.02178 18.8281C7.26978 18.8281 6.66016 19.5316 6.66016 20.3993C6.66016 21.2671 7.26978 21.9706 8.02178 21.9706Z" fill="#0393AA" stroke="#0393AA" stroke-width="0.5"/>
<path d="M8.02178 28.2538C8.77379 28.2538 9.38341 27.5503 9.38341 26.6825C9.38341 25.8148 8.77379 25.1113 8.02178 25.1113C7.26978 25.1113 6.66016 25.8148 6.66016 26.6825C6.66016 27.5503 7.26978 28.2538 8.02178 28.2538Z" fill="#0393AA" stroke="#0393AA" stroke-width="0.5"/>
<path d="M8.02178 34.4979C8.77379 34.4979 9.38341 33.7944 9.38341 32.9267C9.38341 32.0589 8.77379 31.3555 8.02178 31.3555C7.26978 31.3555 6.66016 32.0589 6.66016 32.9267C6.66016 33.7944 7.26978 34.4979 8.02178 34.4979Z" fill="#0393AA" stroke="#0393AA" stroke-width="0.5"/>
<path d="M45.6651 1C43.0869 1 41.0036 3.29397 41.0036 6.1285V30.5759C41.0036 33.4124 43.0887 35.7044 45.6651 35.7044H91.3367C93.9149 35.7044 95.9982 33.4104 95.9982 30.5759V6.1285C95.9982 3.292 93.9131 1 91.3367 1H45.6651ZM45.6651 3.10919H91.3367C92.8429 3.10919 94.0829 4.47339 94.0829 6.13047V30.5759C94.0829 32.233 92.8429 33.5971 91.3367 33.5971H45.6651C44.1589 33.5971 42.9189 32.233 42.9189 30.5759V6.13047C42.9189 4.47339 44.1589 3.10919 45.6651 3.10919ZM64.8328 9.14781C64.3361 9.13209 63.8376 9.53899 63.8376 10.2034V26.501C63.8376 27.4052 64.6648 27.8632 65.3277 27.3757L76.4392 19.2279C77.027 18.7955 77.0306 17.9109 76.4392 17.4725V17.4686L65.3277 9.32473C65.1562 9.19892 64.9954 9.14978 64.8328 9.14388V9.14781ZM65.7547 12.177L74.1826 18.3551L65.7547 24.5333V14.0129V12.177ZM59.8926 41.743C57.8611 41.743 56.1369 43.1819 55.4955 45.1672L55.2865 45.8198H41.9595C41.4199 45.8198 41 46.2798 41 46.8715C41 47.4632 41.4217 47.9271 41.9595 47.9271H55.2865L55.4955 48.5797C56.1369 50.565 57.8611 52 59.8926 52C61.924 52 63.6446 50.567 64.2861 48.5797L64.4951 47.9271H95.0405C95.5783 47.9271 96 47.4632 96 46.8715C96 46.2798 95.5801 45.8198 95.0405 45.8198H64.4951L64.2861 45.1672C63.6446 43.1799 61.924 41.743 59.8926 41.743ZM59.8926 43.8542C61.3988 43.8542 62.6352 45.2203 62.6352 46.8754C62.6352 48.5305 61.397 49.8928 59.8926 49.8928C58.3882 49.8928 57.1464 48.5325 57.1464 46.8754C57.1464 45.2183 58.3864 43.8542 59.8926 43.8542Z" fill="#0393AA" stroke="#0393AA"/>
<path d="M96 82.65L96 66.25L2 66.25L2 82.65L96 82.65Z" stroke="#0393AA" stroke-width="2.5" stroke-miterlimit="10" stroke-linejoin="round"/>
<path d="M96 100L96 89.75L2 89.75L2 100L96 100Z" stroke="#0393AA" stroke-width="2.5" stroke-miterlimit="10" stroke-linejoin="round"/>
<path d="M81.6953 66.25L81.6953 82.65" stroke="#0393AA" stroke-width="2.5" stroke-miterlimit="10"/>
<path d="M85.7812 66.25L85.7812 82.65" stroke="#0393AA" stroke-width="2.5" stroke-miterlimit="10"/>
<path d="M16.3047 66.25L16.3047 82.65" stroke="#0393AA" stroke-width="2.5" stroke-miterlimit="10"/>
<path d="M22.4336 66.25L22.4336 82.65" stroke="#0393AA" stroke-width="2.5" stroke-miterlimit="10"/>
<path d="M73.5234 93.8496L26.5234 93.8496" stroke="#0393AA" stroke-width="2.5" stroke-miterlimit="10" stroke-linecap="round"/>
</svg>
