<svg xmlns="http://www.w3.org/2000/svg" width="40" height="28" viewBox="0 0 40 28" fill="none">
  <g opacity="0.7">
    <g clip-path="url(#clip0_867_651)">
      <path d="M0.714844 0H39.7148V28H0.714844V0Z" fill="white"/>
      <path d="M0.714844 0H13.7148V28H0.714844V0ZM26.7148 0H39.7148V28H26.7148V0Z" fill="#338AF3"/>
      <path d="M20.1769 14.8434C21.2475 14.8434 22.1155 13.9087 22.1155 12.7557C22.1155 11.6027 21.2475 10.668 20.1769 10.668C19.1062 10.668 18.2383 11.6027 18.2383 12.7557C18.2383 13.9087 19.1062 14.8434 20.1769 14.8434Z" fill="#DCC26D"/>
      <path d="M15.4805 12.7642C15.4805 14.5736 16.3775 16.2438 17.822 17.1443C18.2705 17.4227 18.8483 17.259 19.1068 16.7759C19.3653 16.2929 19.2132 15.6707 18.7647 15.3923C17.8904 14.8519 17.3582 13.8449 17.3582 12.7642C17.3582 12.2075 16.9401 11.749 16.4156 11.749C15.891 11.749 15.4805 12.1993 15.4805 12.7642ZM22.7103 17.0297C24.0635 16.0964 24.8846 14.4917 24.877 12.7642C24.877 12.2075 24.4588 11.749 23.9343 11.749C23.4173 11.749 22.9916 12.1993 22.9916 12.7642C22.9916 13.804 22.4974 14.7701 21.6916 15.3268C21.2506 15.6215 21.1062 16.2438 21.3799 16.7186C21.6536 17.1935 22.2313 17.349 22.6723 17.0543C22.6875 17.0461 22.6951 17.0379 22.7103 17.0297Z" fill="#628A40"/>
    </g>
  </g>
  <defs>
    <clipPath id="clip0_867_651">
      <rect x="0.714844" width="39" height="28" rx="2" fill="white"/>
    </clipPath>
  </defs>
</svg> 