<svg width="83" height="83" viewBox="0 0 83 83" fill="none" xmlns="http://www.w3.org/2000/svg">
<g id="Group">
<path id="Vector" d="M41.3823 1.00746C41.1483 1.03677 40.9338 1.15278 40.7812 1.33255C40.6286 1.51231 40.549 1.74272 40.5582 1.97829V7.62686C40.5564 7.75161 40.5795 7.8755 40.626 7.99126C40.6726 8.10703 40.7417 8.21239 40.8293 8.30123C40.917 8.39007 41.0214 8.46061 41.1365 8.50876C41.2517 8.55691 41.3753 8.58171 41.5001 8.58171C41.6249 8.58171 41.7485 8.55691 41.8636 8.50876C41.9788 8.46061 42.0832 8.39007 42.1708 8.30123C42.2585 8.21239 42.3276 8.10703 42.3741 7.99126C42.4206 7.8755 42.4437 7.75161 42.4419 7.62686V1.97829C42.4473 1.84166 42.4228 1.70549 42.3702 1.57928C42.3175 1.45307 42.238 1.33986 42.1372 1.24747C42.0364 1.15507 41.9166 1.08576 41.7862 1.04431C41.6559 1.00286 41.5181 0.990279 41.3823 1.00746ZM26.3126 5.71463C26.1331 5.73209 25.9623 5.8007 25.8207 5.91232C25.679 6.02394 25.5724 6.17386 25.5135 6.34428C25.4546 6.51469 25.4459 6.6984 25.4884 6.87361C25.531 7.04883 25.6229 7.20819 25.7534 7.3327L29.5208 11.0984C29.6078 11.1873 29.7114 11.2581 29.8258 11.307C29.9401 11.3558 30.063 11.3816 30.1874 11.383C30.3117 11.3843 30.4351 11.3612 30.5505 11.3149C30.666 11.2686 30.7711 11.2001 30.86 11.1131C30.9489 11.0262 31.0198 10.9226 31.0687 10.8083C31.1175 10.694 31.1434 10.5712 31.1447 10.4469C31.1461 10.3226 31.123 10.1992 31.0766 10.0838C31.0303 9.96847 30.9617 9.86335 30.8747 9.7745L27.1073 6.00879C27.007 5.90111 26.8829 5.81843 26.7449 5.76734C26.6069 5.71625 26.4588 5.6982 26.3126 5.71463ZM56.5404 5.71463C56.2944 5.72434 56.0619 5.82991 55.8929 6.00879L52.1254 9.7745C52.0385 9.86335 51.9698 9.96847 51.9235 10.0838C51.8772 10.1992 51.8541 10.3226 51.8554 10.4469C51.8568 10.5712 51.8826 10.694 51.9315 10.8083C51.9803 10.9226 52.0512 11.0262 52.1401 11.1131C52.229 11.2001 52.3342 11.2686 52.4496 11.3149C52.565 11.3612 52.6884 11.3843 52.8128 11.383C52.9371 11.3816 53.06 11.3558 53.1744 11.307C53.2887 11.2581 53.3924 11.1873 53.4793 11.0984L57.2468 7.3327C57.3853 7.19934 57.4796 7.02678 57.5171 6.83826C57.5546 6.64973 57.5335 6.45428 57.4566 6.27811C57.3797 6.10194 57.2506 5.9535 57.0869 5.85277C56.9231 5.75204 56.7324 5.70384 56.5404 5.71463ZM41.5295 13.2755C36.6555 13.2755 32.4004 15.9396 30.1095 19.8654H9.47688C9.41814 19.8599 9.35901 19.8599 9.30028 19.8654C9.08217 19.907 8.88578 20.0243 8.74576 20.1966C8.60574 20.3688 8.5311 20.585 8.53502 20.8069V27.3969H1.94201C1.88327 27.3914 1.82414 27.3914 1.76541 27.3969C1.5473 27.4385 1.35091 27.5558 1.21089 27.728C1.07087 27.9003 0.996235 28.1164 1.00015 28.3383V81.0583C1.00016 81.308 1.09939 81.5475 1.27602 81.724C1.45265 81.9006 1.69221 81.9998 1.94201 81.9998H41.5001H81.0581C81.3079 81.9998 81.5475 81.9006 81.7241 81.724C81.9008 81.5475 82 81.308 82 81.0583V28.3383C82 28.0886 81.9007 27.8492 81.7241 27.6727C81.5475 27.4961 81.3079 27.3969 81.0581 27.3969H74.4651V20.8069C74.4651 20.5572 74.3659 20.3178 74.1892 20.1412C74.0126 19.9647 73.7731 19.8655 73.5233 19.8654H52.8907C50.6166 15.9417 46.4019 13.2755 41.5295 13.2755ZM41.5295 15.1583C47.8018 15.1583 52.8024 20.2005 52.8024 26.4555C52.8024 30.2043 50.5645 32.959 47.5633 35.0755C47.4341 35.1633 47.3288 35.2819 47.2568 35.4205C47.1849 35.5592 47.1486 35.7136 47.1512 35.8697V39.6355C47.1512 40.9851 47 41.5459 47.0629 41.4889C46.9097 41.5068 46.6395 41.5181 46.2094 41.5181H42.4714L42.4419 27.544C42.761 27.6231 43.1012 27.726 43.4427 27.8971C44.1887 28.2708 44.8996 28.8532 45.3852 29.721C45.4452 29.8292 45.5258 29.9246 45.6226 30.0016C45.7193 30.0786 45.8303 30.1358 45.9492 30.17C46.0681 30.2041 46.1926 30.2145 46.3155 30.2006C46.4384 30.1867 46.5574 30.1487 46.6656 30.0888C46.7738 30.0289 46.8692 29.9483 46.9462 29.8516C47.0233 29.7549 47.0805 29.6439 47.1147 29.5251C47.1489 29.4062 47.1593 29.2819 47.1453 29.159C47.1314 29.0361 47.0934 28.9173 47.0335 28.8091C46.3338 27.5586 45.2827 26.729 44.2668 26.2201C43.2509 25.7112 42.2798 25.5141 41.5001 25.5141C40.7203 25.5141 39.7493 25.7112 38.7334 26.2201C37.7175 26.729 36.6664 27.5586 35.9667 28.8091C35.8457 29.0276 35.8164 29.2851 35.8854 29.5251C35.9544 29.7651 36.116 29.9678 36.3346 30.0888C36.5531 30.2097 36.8108 30.2389 37.0509 30.17C37.291 30.101 37.4939 29.9395 37.6149 29.721C38.1005 28.8532 38.8114 28.2708 39.5575 27.8971C39.899 27.726 40.2392 27.6231 40.5582 27.544L40.5877 41.5184H36.7908C36.3651 41.5184 36.0883 41.4779 35.9372 41.46C35.9882 41.4864 35.8489 40.9549 35.8489 39.636V35.8703C35.8515 35.7141 35.8153 35.5597 35.7433 35.421C35.6714 35.2823 35.5661 35.1638 35.4369 35.0759C32.4357 32.959 30.1978 30.2043 30.1978 26.4555C30.1978 20.2064 35.2572 15.1583 41.5295 15.1583ZM10.4187 21.7483H29.197C28.6315 23.2143 28.3141 24.7929 28.3141 26.4555C28.3141 30.7659 30.875 33.9798 33.9652 36.2816V39.6355C33.9652 41.0394 33.7948 41.7728 34.3478 42.6069C34.6244 43.024 35.1545 43.2738 35.5546 43.3424C35.6546 43.3594 35.7512 43.3631 35.8489 43.3716V49.0496C35.8489 51.0467 37.455 52.8153 39.6164 52.8153H40.5582V76.6453C38.6186 73.6976 35.077 69.7611 29.2559 69.7611H10.4187V21.7483ZM53.8031 21.7483H72.5814V69.7612H53.7442C47.9231 69.7612 44.3815 73.6977 42.4419 76.6454V52.8155H43.3838C45.5451 52.8155 47.1512 51.0469 47.1512 49.0498V43.3718C47.2488 43.3624 47.3457 43.3595 47.4456 43.3426C47.8451 43.2757 48.3748 43.0264 48.6523 42.6071C49.2073 41.7685 49.0349 41.046 49.0349 39.6355V36.2816C52.1252 33.9798 54.6861 30.7659 54.6861 26.4555C54.6861 24.7942 54.3639 23.214 53.8031 21.7483ZM2.88386 29.2798H8.53502V70.7026C8.53503 70.9523 8.63426 71.1917 8.81089 71.3683C8.98752 71.5448 9.22708 71.6441 9.47688 71.6441H29.2559C36.0069 71.6441 39.6372 78.4277 40.4405 80.117H2.88386V29.2798ZM74.4651 29.2798H80.1163V80.117H42.5597C43.363 78.4277 46.9933 71.6441 53.7442 71.6441H73.5233C73.7731 71.6441 74.0126 71.5448 74.1893 71.3683C74.3659 71.1917 74.4651 70.9523 74.4651 70.7026V29.2798ZM37.7326 43.4012H45.2675V49.0498C45.2675 50.0949 44.5656 50.9326 43.3838 50.9326H39.6164C38.4346 50.9326 37.7326 50.0949 37.7326 49.0498V43.4012Z" fill="#0393AA" stroke="#0393AA"/>
</g>
</svg>
