<svg width="95" height="97" viewBox="0 0 95 97" fill="none" xmlns="http://www.w3.org/2000/svg">
<g id="Group">
<g id="Group_2">
<path id="Vector" d="M64.065 96.0022H4.88702C2.74383 96.0022 1 94.2583 1 92.1152V12.8375C1 10.6943 2.74383 8.95117 4.88702 8.95117H64.065C66.2082 8.95117 67.952 10.6943 67.952 12.8375V92.1152C67.952 94.2583 66.2082 96.0022 64.065 96.0022ZM4.88702 11.9199C4.38909 11.9199 3.96872 12.3403 3.96872 12.8375V92.1152C3.96872 92.6298 4.37242 93.0335 4.88702 93.0335H64.065C64.5796 93.0335 64.9833 92.6298 64.9833 92.1152V12.8375C64.9833 12.3403 64.5629 11.9199 64.065 11.9199H4.88702Z" fill="#0393AA" stroke="#0393AA"/>
</g>
<g id="Group_3">
<path id="Vector_2" d="M72.7329 88.051H66.4672C65.6474 88.051 64.9828 87.3864 64.9828 86.5666V12.8343C64.9828 12.3371 64.5624 11.9167 64.0645 11.9167H11.1523C10.3326 11.9167 9.66797 11.2521 9.66797 10.4323V4.8863C9.66797 2.74311 11.4118 1 13.555 1H72.7329C74.8761 1 76.62 2.74311 76.62 4.8863V84.1647C76.62 86.3079 74.8761 88.051 72.7329 88.051ZM67.9515 85.0823H72.7329C73.2309 85.0823 73.6512 84.6619 73.6512 84.1647V4.8863C73.6512 4.3717 73.2475 3.96872 72.7329 3.96872H13.555C13.0404 3.96872 12.6367 4.3717 12.6367 4.8863V8.94799H64.0645C66.2077 8.94799 67.9515 10.6911 67.9515 12.8343V85.0823Z" fill="#0393AA" stroke="#0393AA"/>
</g>
<g id="Group_4">
<path id="Vector_3" d="M23.7189 33.198H13.3306C11.7614 33.198 10.4844 31.9216 10.4844 30.3524V19.9829C10.4844 18.4138 11.7614 17.1367 13.3306 17.1367H23.7189C25.2881 17.1367 26.5652 18.4138 26.5652 19.9829V30.3524C26.5652 31.9216 25.2881 33.198 23.7189 33.198ZM13.4531 30.2292H23.5965V20.1054H13.4531V30.2292Z" fill="#0393AA" stroke="#0393AA"/>
</g>
<g id="Group_5">
<path id="Vector_4" d="M23.7189 53.9655H13.3306C11.7614 53.9655 10.4844 52.6885 10.4844 51.1193V40.7505C10.4844 39.1814 11.7614 37.9043 13.3306 37.9043H23.7189C25.2881 37.9043 26.5652 39.1814 26.5652 40.7505V51.1193C26.5652 52.6885 25.2881 53.9655 23.7189 53.9655ZM13.4531 50.9968H23.5965V40.873H13.4531V50.9968Z" fill="#0393AA" stroke="#0393AA"/>
</g>
<g id="Group_6">
<path id="Vector_5" d="M23.7189 74.7312H13.3306C11.7614 74.7312 10.4844 73.4541 10.4844 71.8849V61.5154C10.4844 59.9463 11.7614 58.6699 13.3306 58.6699H23.7189C25.2881 58.6699 26.5652 59.9463 26.5652 61.5154V71.8849C26.5652 73.4541 25.2881 74.7312 23.7189 74.7312ZM13.4531 71.7624H23.5965V61.6386H13.4531V71.7624Z" fill="#0393AA" stroke="#0393AA"/>
</g>
<g id="Group_7">
<path id="Vector_6" d="M56.9784 21.6054H36.2734C35.4537 21.6054 34.7891 20.9408 34.7891 20.1211C34.7891 19.3013 35.4537 18.6367 36.2734 18.6367H56.9784C57.7981 18.6367 58.4627 19.3013 58.4627 20.1211C58.4627 20.9408 57.7981 21.6054 56.9784 21.6054Z" fill="#0393AA" stroke="#0393AA"/>
</g>
<g id="Group_8">
<path id="Vector_7" d="M56.9784 42.3711H36.2734C35.4537 42.3711 34.7891 41.7064 34.7891 40.8867C34.7891 40.067 35.4537 39.4023 36.2734 39.4023H56.9784C57.7981 39.4023 58.4627 40.067 58.4627 40.8867C58.4627 41.7064 57.7981 42.3711 56.9784 42.3711Z" fill="#0393AA" stroke="#0393AA"/>
</g>
<g id="Group_9">
<path id="Vector_8" d="M56.9784 52.4609H36.2734C35.4537 52.4609 34.7891 51.7963 34.7891 50.9765C34.7891 50.1568 35.4537 49.4922 36.2734 49.4922H56.9784C57.7981 49.4922 58.4627 50.1568 58.4627 50.9765C58.4627 51.7963 57.7981 52.4609 56.9784 52.4609Z" fill="#0393AA" stroke="#0393AA"/>
</g>
<g id="Group_10">
<path id="Vector_9" d="M41.8934 74.7765C41.5136 74.7765 41.1338 74.6315 40.8439 74.3416L35.2239 68.7216C34.6441 68.1418 34.6441 67.2025 35.2239 66.6226C35.8038 66.0428 36.7431 66.0428 37.3229 66.6226L41.8934 71.1931L52.5325 60.554C53.1123 59.9742 54.0517 59.9742 54.6315 60.554C55.2113 61.1338 55.2113 62.0732 54.6315 62.653L42.9429 74.3416C42.653 74.6315 42.2732 74.7765 41.8934 74.7765Z" fill="#0393AA" stroke="#0393AA"/>
</g>
<g id="Group_11">
<g id="Group_12">
<path id="Vector_10" d="M88.6928 94.0961C85.5342 94.0961 82.9648 91.5173 82.9648 88.3471V78.6582C82.9648 77.8385 83.6295 77.1738 84.4492 77.1738H92.9575C93.7772 77.1738 94.4418 77.8385 94.4418 78.6582V88.3471C94.4418 91.5173 91.863 94.0961 88.6928 94.0961ZM85.9336 80.1425V88.3471C85.9336 89.88 87.1715 91.1274 88.6928 91.1274C90.2257 91.1274 91.4731 89.88 91.4731 88.3471V80.1425H85.9336Z" fill="#0393AA" stroke="#0393AA"/>
</g>
<g id="Group_13">
<g id="Vector_11">
<path d="M92.9575 80.1426H84.4492C83.6295 80.1426 82.9648 79.4779 82.9648 78.6582V34.2144C82.9648 33.6367 83.0953 33.0228 83.341 32.4372L87.3251 23.0063C87.5571 22.4569 88.0956 22.1003 88.6914 22.0996C88.6906 22.0996 88.6921 22.0996 88.6914 22.0996C89.2871 22.0996 89.8264 22.4555 90.059 23.0034L94.0635 32.4329C94.3114 33.0228 94.4418 33.6367 94.4418 34.2144V78.6582C94.4418 79.4779 93.7772 80.1426 92.9575 80.1426ZM85.9336 77.1738H91.4731V34.2144C91.4731 34.0346 91.4209 33.8063 91.3289 33.5896L88.6964 27.3898L86.0771 33.5911C85.9857 33.8063 85.9336 34.0346 85.9336 34.2144V77.1738Z" fill="#0393AA"/>
<path d="M88.6914 22.0996C88.0956 22.1003 87.5571 22.4569 87.3251 23.0063L83.341 32.4372C83.0953 33.0228 82.9648 33.6367 82.9648 34.2144V78.6582C82.9648 79.4779 83.6295 80.1426 84.4492 80.1426H92.9575C93.7772 80.1426 94.4418 79.4779 94.4418 78.6582V34.2144C94.4418 33.6367 94.3114 33.0228 94.0635 32.4329L90.059 23.0034C89.8264 22.4555 89.2871 22.0996 88.6914 22.0996ZM88.6914 22.0996C88.6921 22.0996 88.6906 22.0996 88.6914 22.0996ZM85.9336 77.1738H91.4731V34.2144C91.4731 34.0346 91.4209 33.8063 91.3289 33.5896L88.6964 27.3898L86.0771 33.5911C85.9857 33.8063 85.9336 34.0346 85.9336 34.2144V77.1738Z" stroke="#0393AA"/>
</g>
</g>
</g>
</g>
</svg>
