<svg width="67" height="67" viewBox="0 0 67 67" fill="none" xmlns="http://www.w3.org/2000/svg">
<path d="M1.72145 56.5413L14.8924 43.3821L16.5741 45.0638L22.2775 39.5602C19.3494 35.4913 17.6089 30.5287 17.6089 25.1662C17.6089 11.5484 28.6866 0.470703 42.3045 0.470703C55.9223 0.470703 67 11.5484 67 25.1662C67 38.7841 55.9223 49.8618 42.3045 49.8618C36.601 49.8618 31.3443 47.8979 27.1579 44.6287L21.5484 50.0382L23.1948 51.6846L10.0356 64.8438C8.9302 65.9492 7.44847 66.5607 5.87265 66.5607C4.29684 66.5607 2.82687 65.9492 1.70969 64.8438C-0.571709 62.5624 -0.571701 58.8345 1.72145 56.5413ZM64.648 25.1662C64.648 12.842 54.6287 2.82266 42.3045 2.82266C29.9802 2.82266 19.9609 12.842 19.9609 25.1662C19.9609 30.4111 21.7954 35.2326 24.8294 39.0546C25.194 39.5014 25.5703 39.9365 25.9584 40.3599C26.076 40.4892 26.1818 40.6186 26.3112 40.748C26.6875 41.1243 27.0755 41.4888 27.4636 41.8416C27.6635 42.018 27.8517 42.2179 28.0634 42.3943L28.1222 42.4414C31.9794 45.593 36.9185 47.5098 42.3045 47.5098C54.6287 47.5098 64.648 37.4905 64.648 25.1662ZM3.39134 63.1856C4.7202 64.5145 7.04863 64.5145 8.37749 63.1856L19.8786 51.6846L18.1969 50.0029L25.3469 43.0882C25.2763 43.0176 25.2057 42.947 25.1352 42.8765C24.7941 42.5472 24.4649 42.1944 24.1356 41.8416C23.9945 41.6887 23.8416 41.5476 23.7122 41.3947L16.527 48.333L14.8806 46.6866L3.37958 58.1877C2.01545 59.5754 2.01544 61.8215 3.39134 63.1856Z" fill="#0393AA"/>
<path d="M22.3136 25.1674C22.3136 14.1485 31.2863 5.17578 42.3052 5.17578C53.3242 5.17578 62.2969 14.1485 62.2969 25.1674C62.2969 36.1863 53.3242 45.159 42.3052 45.159C31.2863 45.159 22.3136 36.1863 22.3136 25.1674ZM42.3052 42.8071C52.0306 42.8071 59.9449 34.8927 59.9449 25.1674C59.9449 15.4421 52.0306 7.52774 42.3052 7.52774C32.5799 7.52774 24.6656 15.4421 24.6656 25.1674C24.6656 34.8927 32.5799 42.8071 42.3052 42.8071Z" fill="#0393AA"/>
</svg>
