<svg xmlns="http://www.w3.org/2000/svg" width="40" height="28" viewBox="0 0 40 28" fill="none">
  <g opacity="0.7">
    <g clip-path="url(#clip0_867_646)">
      <path d="M0.714844 0H39.7148V9.33333H0.714844V0Z" fill="#FFCE00"/>
      <path d="M0.714844 9.33301H39.7148V18.6663H0.714844V9.33301Z" fill="#203899"/>
      <path d="M0.714844 18.667H39.7148V28.0003H0.714844V18.667Z" fill="#D82B2B"/>
      <path d="M21.7386 10.043L21.9813 10.9016L22.7613 11.163L22.0853 11.667L22.1026 12.563L21.444 12.0216L20.664 12.3016L20.924 11.4803L20.4386 10.771H21.2533L21.7386 10.043ZM18.6706 10.043L19.1386 10.771H19.9533L19.468 11.4803L19.728 12.3203L18.948 12.0216L18.2893 12.5443L18.3066 11.667L17.6306 11.1443L18.4106 10.9016L18.6706 10.043ZM24.6333 11.0883L24.616 11.9843L25.292 12.4883L24.4946 12.7496L24.252 13.5896L23.784 12.8803H22.952L23.4546 12.171L23.1946 11.331L23.9746 11.6296L24.6333 11.0883ZM15.776 11.1256L16.4693 11.6296L17.232 11.2936L17.0066 12.1523L17.5266 12.8243L16.712 12.8616L16.2613 13.6083L15.984 12.787L15.1866 12.563L15.828 12.003L15.776 11.1256ZM27.1293 13.3096L26.7826 14.131L27.216 14.8776L26.4013 14.7843L25.864 15.4563L25.6906 14.5976L24.9453 14.2616L25.656 13.8136L25.708 12.9363L26.3146 13.515L27.1293 13.3096ZM27.4586 15.4003L27.8226 16.203L28.6373 16.3336L28.048 16.9496L28.1866 17.8083L27.4586 17.3976L26.7306 17.8083L26.8693 16.9496L26.28 16.3336L27.0946 16.203L27.4586 15.4003ZM12.8466 15.307L13.2106 16.1096L14.0253 16.2216L13.436 16.8376L13.5746 17.715L12.8466 17.3043L12.1186 17.715L12.2573 16.8376L11.668 16.2216L12.4826 16.1096L12.8466 15.307ZM13.384 13.1603L14.164 13.4216L14.8226 12.8803V13.7763L15.4986 14.2616L14.7186 14.5416L14.4933 15.4003L14.008 14.691L13.1933 14.7096L13.6613 14.0003L13.384 13.1603Z" fill="white"/>
    </g>
  </g>
  <defs>
    <clipPath id="clip0_867_646">
      <rect x="0.714844" width="39" height="28" rx="2" fill="white"/>
    </clipPath>
  </defs>
</svg>