<svg xmlns="http://www.w3.org/2000/svg" width="17" height="16" viewBox="0 0 17 16" fill="none">
  <path d="M15.8649 5.95468C15.1685 3.28518 13.0213 1.13796 10.3227 0.470588C7.62421 -0.196788 4.69356 0.673703 2.83651 2.76288C0.544216 5.31632 0.254052 9.14648 2.1111 12.0481C1.96602 13.0927 1.84995 14.1373 1.70487 15.1819C1.64684 15.5591 2.1111 15.8202 2.43028 15.7332C3.44585 15.443 4.49044 15.1819 5.50601 14.8917C8.26257 16.0234 11.4544 15.5011 13.6596 13.4699C15.7198 11.5839 16.5612 8.62419 15.8649 5.95468ZM13.8337 11.5548C12.0927 14.1083 8.6688 15.0658 5.85421 13.7891C5.85421 13.7891 5.85421 13.7891 5.82519 13.7891C5.70913 13.7311 5.56405 13.7021 5.38995 13.7311C4.57749 13.9632 3.76503 14.1663 2.95257 14.3984C3.03962 13.7021 3.12667 13.0347 3.21372 12.3383C3.24274 12.1062 3.30077 11.845 3.1847 11.6129C3.09766 11.4678 2.98159 11.3227 2.89454 11.1486C2.69143 10.8004 2.51733 10.4232 2.37225 10.046C1.90798 8.71124 1.87897 7.2314 2.31421 5.89665C3.06864 3.54632 5.21585 1.77632 7.65322 1.48616C10.1776 1.13796 12.7021 2.35665 14.0078 4.47485C15.3426 6.65107 15.2555 9.43664 13.8337 11.5548Z" fill="#F0F0F0"/>
  <path d="M12.5284 8.82594L11.2227 7.81037C10.8164 7.49119 10.2651 7.54922 9.91693 7.89742L9.53971 8.27463C9.24955 8.10053 8.9884 7.89742 8.72725 7.66529C8.49512 7.43316 8.29201 7.14299 8.11791 6.85283L8.49512 6.47562C8.84332 6.12742 8.87234 5.57611 8.58217 5.16988L7.5666 3.83513C7.36349 3.54496 7.04431 3.37087 6.69611 3.37087C6.34791 3.34185 5.99972 3.48693 5.76759 3.71906L4.63595 4.8507C3.99759 5.48906 3.85251 6.47562 4.25873 7.28808C4.81005 8.33266 5.50644 9.26119 6.3189 10.0736C7.13135 10.8861 8.08889 11.5825 9.10447 12.1338C9.42365 12.3079 9.74283 12.3659 10.062 12.3659C10.5843 12.3659 11.1356 12.1628 11.5128 11.7566L12.6445 10.625C12.8766 10.3928 13.0217 10.0446 12.9927 9.69643C12.9927 9.34824 12.8186 9.02906 12.5284 8.82594ZM11.832 9.8125L10.7004 10.9441C10.4102 11.2343 9.97496 11.2923 9.62676 11.1182C8.69824 10.625 7.85676 10.0156 7.10234 9.26119C6.34791 8.50676 5.73857 7.66529 5.24529 6.73676C5.07119 6.38857 5.12923 5.95332 5.41939 5.66316L6.55103 4.53152C6.55103 4.53152 6.55103 4.53152 6.58004 4.53152C6.60906 4.53152 6.60906 4.53152 6.60906 4.56054L7.53758 5.77922L7.16037 6.12742C6.87021 6.41758 6.78316 6.88185 6.98627 7.25906C7.2184 7.72332 7.53758 8.12955 7.88578 8.47775C8.23398 8.82594 8.64021 9.14512 9.10447 9.37725C9.48168 9.58037 9.91693 9.49332 10.2071 9.20316L10.6133 8.79693L11.803 9.72545C11.803 9.72545 11.832 9.72545 11.832 9.75447C11.832 9.78348 11.832 9.8125 11.832 9.8125Z" fill="#F0F0F0"/>
</svg>