<svg xmlns="http://www.w3.org/2000/svg" width="70" height="74" viewBox="0 0 70 74" fill="none">
  <path d="M32.0462 24.8734C32.0462 24.2307 32.5583 23.715 33.1966 23.715H39.3045C39.9427 23.715 40.4548 24.2307 40.4548 24.8734C40.4548 25.5162 39.9427 26.0319 39.3045 26.0319H33.1966C32.5657 26.0319 32.0462 25.5087 32.0462 24.8734ZM9.98198 55.2627H28.662C29.3003 55.2627 29.8123 54.747 29.8123 54.1042C29.8123 53.4615 29.3003 52.9458 28.662 52.9458H9.98198C9.34372 52.9458 8.83164 53.4615 8.83164 54.1042C8.83164 54.747 9.34372 55.2627 9.98198 55.2627ZM39.3045 62.6844H9.98198C9.34372 62.6844 8.83164 63.2001 8.83164 63.8428C8.83164 64.4856 9.34372 65.0013 9.98198 65.0013H39.3045C39.9427 65.0013 40.4548 64.4856 40.4548 63.8428C40.4548 63.2001 39.9427 62.6844 39.3045 62.6844ZM70 67.7368C70 68.6486 69.6512 69.5081 69.0129 70.1509C68.3747 70.7937 67.5212 71.1524 66.6158 71.1524C65.7103 71.1524 64.8569 70.7937 64.2186 70.1509L53.7542 59.62C52.834 58.6858 52.7598 57.2209 53.5316 56.1969L52.9305 55.5916C51.8172 56.5482 50.5852 57.2956 49.2865 57.8412V69.396C49.2865 71.9372 47.2381 74 44.7148 74H4.57167C2.04835 74 0 71.9372 0 69.396V13.8717C0 11.3306 2.04835 9.26775 4.57167 9.26775H11.4366C11.7557 7.45157 13.3291 6.06141 15.2216 6.06141H17.5668C18.116 2.63084 21.0772 0 24.6395 0C28.1944 0 31.1556 2.63084 31.7123 6.06141H34.0575C35.95 6.06141 37.5307 7.45157 37.8499 9.26775H44.7148C47.2381 9.26775 49.2865 11.3306 49.2865 13.8717V31.8093C50.9192 32.4969 52.448 33.5059 53.7765 34.8438C58.9642 40.0755 59.2239 48.4165 54.5558 53.9548L55.1569 54.5601C55.6022 54.2163 56.144 54.0295 56.7154 54.0295H56.7229C57.4131 54.0295 58.0662 54.2985 58.556 54.7918L69.0203 65.3302C69.6438 65.9655 70 66.8175 70 67.7368ZM52.1512 36.4731C47.5795 31.8766 40.1431 31.8766 35.5715 36.4731C31.0072 41.0771 31.0072 48.566 35.5715 53.17C37.8573 55.472 40.8556 56.6155 43.8613 56.6155C46.867 56.6155 49.8653 55.4645 52.1512 53.1625C56.7154 48.566 56.7154 41.0771 52.1512 36.4731ZM13.6779 13.1617C13.6779 14.0212 14.3755 14.7238 15.229 14.7238H34.0649C34.9184 14.7238 35.616 14.0212 35.616 13.1617V9.93294C35.616 9.07343 34.9184 8.37087 34.0649 8.37087H30.6584C30.0201 8.37087 29.5081 7.85517 29.5081 7.2124C29.5081 4.50682 27.3261 2.30946 24.6469 2.30946C21.9603 2.30946 19.7784 4.50682 19.7784 7.2124C19.7784 7.85517 19.2663 8.37087 18.6281 8.37087H15.2216C14.3681 8.37087 13.6705 9.07343 13.6705 9.93294V13.1617H13.6779ZM46.9858 58.5737C45.9616 58.8054 44.9078 58.9324 43.8613 58.9324C40.2693 58.9324 36.6847 57.5572 33.9461 54.8068C28.4839 49.2985 28.4839 40.3446 33.9461 34.8363C37.4788 31.2861 42.4364 30.0305 46.9858 31.0694V13.8717C46.9858 12.6086 45.969 11.5847 44.7148 11.5847H37.9092V13.1692C37.9092 15.3067 36.18 17.0407 34.0575 17.0407H15.2216C13.099 17.0407 11.3772 15.3067 11.3772 13.1692V11.5847H4.57167C3.31743 11.5847 2.30068 12.6086 2.30068 13.8717V69.396C2.30068 70.6591 3.31743 71.6831 4.57167 71.6831H44.7074C45.9616 71.6831 46.9784 70.6591 46.9784 69.396V58.5737H46.9858ZM67.6993 67.7368C67.6993 67.4378 67.588 67.1613 67.3802 66.9595L56.9158 56.4212C56.8416 56.3464 56.7525 56.339 56.708 56.339C56.6486 56.3315 56.5744 56.3539 56.5076 56.4212L55.3647 57.5722C55.2608 57.6843 55.2608 57.8711 55.3721 57.9832L65.8365 68.5141C66.0443 68.7234 66.3189 68.8355 66.6083 68.8355C66.8978 68.8355 67.1724 68.7234 67.3802 68.5141C67.588 68.3048 67.6993 68.0283 67.6993 67.7368ZM8.83164 42.5719V26.6597C8.83164 25.0379 10.1378 23.715 11.7483 23.715H26.3094C27.9198 23.715 29.2335 25.0379 29.2335 26.6597V42.5719C29.2335 44.1937 27.9198 45.5166 26.3094 45.5166H11.7483C10.1378 45.5166 8.83164 44.1937 8.83164 42.5719ZM11.1249 42.5719C11.1249 42.9157 11.4069 43.1997 11.7483 43.1997H26.3094C26.6508 43.1997 26.9328 42.9157 26.9328 42.5719V26.6597C26.9328 26.3159 26.6508 26.0319 26.3094 26.0319H11.7483C11.4143 26.0319 11.1249 26.3234 11.1249 26.6597V42.5719ZM14.3607 40.8155C13.8783 40.1951 13.715 39.4253 13.9005 38.6331C14.5908 35.7033 16.6539 33.7376 19.0214 33.7376C21.3889 33.7376 23.4521 35.7033 24.1423 38.6331C24.3278 39.4253 24.1645 40.2026 23.6821 40.8155C23.1775 41.4582 22.3611 41.8618 21.5596 41.8618H16.4684C15.6817 41.8618 14.8728 41.4657 14.3607 40.8155ZM16.1641 39.3805C16.2458 39.4851 16.4016 39.5449 16.4832 39.5449H21.5744C21.6561 39.5449 21.8119 39.4776 21.8936 39.3805C21.9158 39.3506 21.9529 39.3057 21.9232 39.1712C21.4854 37.3326 20.2979 36.0545 19.0363 36.0545C17.7672 36.0545 16.5797 37.3326 16.1493 39.1712C16.1047 39.3057 16.1419 39.3506 16.1641 39.3805ZM16.2606 30.1576C16.2606 28.6179 17.5074 27.3623 19.0363 27.3623C20.5651 27.3623 21.8045 28.6179 21.8045 30.1576C21.8045 31.6972 20.5651 32.9454 19.0363 32.9454C17.5 32.9454 16.2606 31.6897 16.2606 30.1576ZM18.5539 30.1576C18.5539 30.4191 18.7691 30.6284 19.0288 30.6284C19.2812 30.6284 19.4964 30.4117 19.4964 30.1576C19.4964 29.896 19.2886 29.6792 19.0288 29.6792C18.7691 29.6792 18.5539 29.8885 18.5539 30.1576Z" fill="#0393AA"/>
</svg>