<svg width="96" height="80" viewBox="0 0 96 80" fill="none" xmlns="http://www.w3.org/2000/svg">
<g id="Group 237751">
<path id="Vector" d="M40.2327 27.6615C40.3101 27.6617 40.3873 27.6527 40.4626 27.6347L49.6151 25.5341C52.6261 26.9599 55.9195 27.6871 59.25 27.6615C69.0266 27.6615 76.9783 21.6821 76.9783 14.3318C76.9783 6.98141 69.0266 1 59.25 1C49.4735 1 41.5177 6.98141 41.5177 14.3318C41.5221 16.1147 41.9806 17.8671 42.8498 19.4232L39.3214 26.1548C39.2389 26.3117 39.1983 26.4873 39.2036 26.6645C39.2089 26.8417 39.2599 27.0146 39.3516 27.1662C39.4433 27.3179 39.5727 27.4432 39.7271 27.5299C39.8815 27.6167 40.0557 27.662 40.2327 27.6615ZM44.9332 19.8754C45.018 19.7161 45.0594 19.5372 45.0533 19.3568C45.0472 19.1764 44.9937 19.0008 44.8983 18.8476C44.0426 17.4943 43.5839 15.9274 43.5744 14.3256C43.5744 8.10986 50.6065 3.05341 59.25 3.05341C67.8935 3.05341 74.9237 8.10986 74.9237 14.3256C74.9237 20.5413 67.8915 25.606 59.25 25.606C56.1188 25.6336 53.025 24.9232 50.2186 23.532C50.0742 23.4588 49.9146 23.4207 49.7527 23.421C49.6754 23.421 49.5983 23.4293 49.5228 23.4457L42.1889 25.1312L44.9332 19.8754Z" fill="#0393AA" stroke="#0393AA"/>
<path id="Vector_2" d="M49.749 11.5105H67.7769C68.0491 11.5105 68.3102 11.4023 68.5026 11.2095C68.6951 11.0168 68.8032 10.7554 68.8032 10.4828C68.8032 10.2102 68.6951 9.94883 68.5026 9.75609C68.3102 9.56336 68.0491 9.45508 67.7769 9.45508H49.749C49.4768 9.45508 49.2157 9.56336 49.0232 9.75609C48.8308 9.94883 48.7227 10.2102 48.7227 10.4828C48.7227 10.7554 48.8308 11.0168 49.0232 11.2095C49.2157 11.4023 49.4768 11.5105 49.749 11.5105Z" fill="#0393AA" stroke="#0393AA"/>
<path id="Vector_3" d="M67.7747 17.1504H63.8974C63.6252 17.1504 63.3642 17.2587 63.1717 17.4514C62.9792 17.6441 62.8711 17.9056 62.8711 18.1781C62.8711 18.4507 62.9792 18.7121 63.1717 18.9048C63.3642 19.0976 63.6252 19.2059 63.8974 19.2059H67.7747C68.0469 19.2059 68.308 19.0976 68.5005 18.9048C68.6929 18.7121 68.801 18.4507 68.801 18.1781C68.801 17.9056 68.6929 17.6441 68.5005 17.4514C68.308 17.2587 68.0469 17.1504 67.7747 17.1504Z" fill="#0393AA" stroke="#0393AA"/>
<path id="Vector_4" d="M57.399 19.2098C57.6712 19.2098 57.9322 19.1015 58.1247 18.9087C58.3172 18.716 58.4253 18.4546 58.4253 18.182C58.4253 17.9095 58.3172 17.648 58.1247 17.4553C57.9322 17.2626 57.6712 17.1543 57.399 17.1543H49.749C49.4768 17.1543 49.2157 17.2626 49.0232 17.4553C48.8308 17.648 48.7227 17.9095 48.7227 18.182C48.7227 18.4546 48.8308 18.716 49.0232 18.9087C49.2157 19.1015 49.4768 19.2098 49.749 19.2098H57.399Z" fill="#0393AA" stroke="#0393AA"/>
<path id="Vector_5" d="M94.7934 35.9339C94.4939 35.5123 94.0976 35.1689 93.6379 34.9328C93.1781 34.6967 92.6684 34.5748 92.1517 34.5773H52.5387C51.3389 34.5802 50.1684 34.9492 49.1834 35.6352C48.1984 36.3212 47.4456 37.2915 47.0254 38.4169L37.994 62.7495L31.1629 48.0879C29.484 44.5103 26.5244 41.6947 22.8704 40.199C25.9808 39.0535 28.5982 36.8631 30.2763 34.0013C31.9545 31.1396 32.5895 27.7835 32.0733 24.5054C31.557 21.2272 29.9213 18.2298 27.4451 16.0241C24.9689 13.8184 21.8054 12.541 18.4939 12.4097C15.1825 12.2783 11.928 13.3012 9.28532 15.3038C6.64265 17.3064 4.77537 20.1649 4.00178 23.3919C3.2282 26.6189 3.5962 30.0147 5.04307 33.0005C6.48993 35.9862 8.92608 38.377 11.9362 39.7653C8.76433 40.7812 5.99631 42.7791 4.03093 45.4712C2.06556 48.1633 1.00428 51.4107 1 54.7455V77.9723C1 78.2449 1.10813 78.5063 1.3006 78.6991C1.49306 78.8918 1.75411 79.0001 2.0263 79.0001C2.29849 79.0001 2.55953 78.8918 2.752 78.6991C2.94447 78.5063 3.0526 78.2449 3.0526 77.9723V54.7414C3.05694 51.1196 4.4955 47.6472 7.05279 45.086C9.61008 42.5247 13.0773 41.0836 16.6942 41.0787H16.9384C19.5324 41.0847 22.0712 41.8287 24.2593 43.2239C26.4473 44.6191 28.1944 46.6082 29.2971 48.9594L37.175 65.8492C37.4788 66.4954 37.9594 67.042 38.5611 67.4255C39.1628 67.809 39.8608 68.0136 40.5741 68.0156H54.893C56.0573 68.0184 57.1731 68.483 57.996 69.3078C58.8189 70.1327 59.2819 71.2505 59.2835 72.4164V72.5274C59.2819 73.6944 58.8181 74.8131 57.9938 75.6381C57.1696 76.4631 56.0522 76.9271 54.8868 76.9282H34.8945C33.52 76.9251 32.1746 76.5313 31.0148 75.7927C29.8549 75.054 28.9283 74.0008 28.3426 72.7556L19.9044 54.6983C19.8471 54.576 19.7664 54.4662 19.6667 54.3752C19.5671 54.2842 19.4505 54.2137 19.3237 54.1678C19.1968 54.1219 19.0622 54.1015 18.9274 54.1077C18.7927 54.1139 18.6605 54.1466 18.5384 54.2039C18.4163 54.2613 18.3067 54.3422 18.2158 54.442C18.1249 54.5417 18.0545 54.6585 18.0087 54.7855C17.9628 54.9125 17.9424 55.0473 17.9486 55.1823C17.9548 55.3172 17.9875 55.4496 18.0448 55.5718L26.4809 73.6271C27.233 75.2268 28.4231 76.5798 29.9129 77.5288C31.4027 78.4778 33.1309 78.9837 34.8966 78.9877H77.5721C78.8052 78.9885 80.0072 78.6009 81.0081 77.8797C82.009 77.1585 82.758 76.1403 83.149 74.9693L95.2265 38.8712C95.3946 38.3826 95.443 37.8608 95.3676 37.3497C95.2922 36.8385 95.0953 36.3529 94.7934 35.9339ZM5.66145 26.746C5.66104 24.3176 6.3798 21.9436 7.7268 19.9243C9.07381 17.905 10.9886 16.331 13.2289 15.4016C15.4692 14.4721 17.9345 14.2288 20.3129 14.7024C22.6914 15.1761 24.8761 16.3454 26.5909 18.0625C28.3056 19.7797 29.4733 21.9675 29.9463 24.3492C30.4193 26.731 30.1763 29.1997 29.2481 31.4432C28.3199 33.6866 26.7482 35.6041 24.7317 36.953C22.7152 38.3019 20.3446 39.0216 17.9196 39.0212C14.6698 39.0169 11.5545 37.7222 9.25656 35.4211C6.95866 33.12 5.66579 30.0002 5.66145 26.746ZM54.895 65.9561H54.6898C54.9313 63.9992 55.878 62.198 57.352 60.8908C58.826 59.5835 60.7259 58.8601 62.6949 58.8565H65.0759C67.216 58.8587 69.2678 59.7108 70.7812 61.2259C72.2946 62.7411 73.1461 64.7956 73.1488 66.9386V76.9282H59.6016C60.7186 75.736 61.3396 74.1622 61.3382 72.5274V72.4164C61.336 70.7051 60.6567 69.0644 59.4491 67.8536C58.2415 66.6427 56.6039 65.9604 54.895 65.9561ZM63.8977 56.7969C62.9234 56.7969 61.971 56.5076 61.1609 55.9655C60.3507 55.4235 59.7193 54.653 59.3465 53.7516C58.9736 52.8502 58.8761 51.8583 59.0662 50.9014C59.2562 49.9444 59.7254 49.0654 60.4144 48.3755C61.1033 47.6856 61.9811 47.2158 62.9367 47.0254C63.8923 46.8351 64.8828 46.9328 65.7829 47.3062C66.6831 47.6796 67.4524 48.3118 67.9938 49.1231C68.535 49.9343 68.824 50.8881 68.824 51.8638C68.824 53.1721 68.305 54.4269 67.3811 55.352C66.4573 56.2772 65.2043 56.7969 63.8977 56.7969ZM93.2786 38.2175L81.1991 74.3198C80.9446 75.0812 80.4574 75.7431 79.8065 76.212C79.1556 76.6808 78.3739 76.9328 77.5721 76.9323H75.2158V66.9427C75.2129 64.811 74.5404 62.7343 73.2933 61.0067C72.0463 59.2791 70.2881 57.9882 68.2677 57.3169C69.3943 56.4109 70.2123 55.1769 70.6088 53.7854C71.0052 52.3939 70.9606 50.9135 70.481 49.5485C70.0014 48.1835 69.1105 47.0013 67.9313 46.165C66.7521 45.3286 65.3427 44.8795 63.8977 44.8795C62.4527 44.8795 61.0434 45.3286 59.8642 46.165C58.685 47.0013 57.7941 48.1835 57.3145 49.5485C56.8349 50.9135 56.7903 52.3939 57.1867 53.7854C57.5831 55.1769 58.4011 56.4109 59.5278 57.3169C57.667 57.9364 56.0253 59.0823 54.801 60.6161C53.5767 62.15 52.8223 64.0061 52.629 65.9602H40.5761C40.3197 65.9591 40.0668 65.8999 39.8365 65.7871C39.6062 65.6742 39.4043 65.5107 39.246 65.3086L48.9507 39.1384C49.2244 38.4063 49.7144 37.7751 50.3554 37.3289C50.9964 36.8827 51.758 36.6428 52.5387 36.641H92.1415C92.3315 36.641 92.5188 36.6862 92.6879 36.7729C92.857 36.8596 93.0032 36.9853 93.1142 37.1397C93.2253 37.2941 93.2981 37.4727 93.3267 37.6608C93.3553 37.8489 93.3388 38.0412 93.2786 38.2216V38.2175Z" fill="#0393AA" stroke="#0393AA"/>
</g>
</svg>
