<svg xmlns="http://www.w3.org/2000/svg" width="39" height="28" viewBox="0 0 39 28" fill="none">
  <g opacity="0.7">
    <g clip-path="url(#clip0_586_1473)">
      <path d="M35.2857 0H3.71429C1.66294 0 0 1.67147 0 3.73333V24.2667C0 26.3285 1.66294 28 3.71429 28H35.2857C37.3371 28 39 26.3285 39 24.2667V3.73333C39 1.67147 37.3371 0 35.2857 0Z" fill="#1A47B8"/>
      <path fill-rule="evenodd" clip-rule="evenodd" d="M0 21H39V28H0V21Z" fill="#F93939"/>
      <path fill-rule="evenodd" clip-rule="evenodd" d="M0 0H39V14H0V0Z" fill="#FFDA2C"/>
      <path fill-rule="evenodd" clip-rule="evenodd" d="M11.1406 7.4668H16.7121L19.4978 9.33346L22.2835 7.4668H27.8549L22.2835 9.33346L20.4263 11.2001H18.5692L16.7121 9.33346L11.1406 7.4668Z" fill="#151515"/>
      <path d="M19.5006 18.6659C21.0391 18.6659 22.2863 16.9944 22.2863 14.9326C22.2863 12.8707 21.0391 11.1992 19.5006 11.1992C17.9621 11.1992 16.7148 12.8707 16.7148 14.9326C16.7148 16.9944 17.9621 18.6659 19.5006 18.6659Z" fill="#3ECBF8"/>
      <path fill-rule="evenodd" clip-rule="evenodd" d="M14.8571 13.0664V16.7997L18.5714 18.6664H20.4286L24.1429 16.7997V13.0664L26 16.7997L24.1429 18.6664L20.4286 20.5331H18.5714L14.8571 18.6664L13 16.7997L14.8571 13.0664Z" fill="#FFDA2C"/>
    </g>
  </g>
  <defs>
    <clipPath id="clip0_586_1473">
      <rect width="39" height="28" rx="2" fill="white"/>
    </clipPath>
  </defs>
</svg>