<svg xmlns="http://www.w3.org/2000/svg" width="16" height="16" viewBox="0 0 16 16" fill="none">
  <path d="M7.99225 1C4.13178 1 1 4.13178 1 7.99225C1 11.8527 4.13178 15 7.99225 15C11.8527 15 15 11.8527 15 7.99225C15 4.13178 11.8527 1 7.99225 1ZM7.99225 13.8837C4.75194 13.8837 2.11628 11.2481 2.11628 7.97674C2.11628 4.73643 4.75194 2.10078 7.99225 2.10078C11.2481 2.10078 13.8992 4.73643 13.8992 7.97674C13.8837 11.2481 11.2481 13.8837 7.99225 13.8837Z" fill="#0393AA" stroke="#0393AA" stroke-width="0.5"/>
  <path d="M7.91346 4.41016C7.2933 4.41016 6.79718 4.5652 6.40958 4.89078C6.00648 5.20085 5.83594 5.65047 5.83594 6.1776L5.85144 6.22411H6.81268C6.81268 5.89853 6.92121 5.65047 7.12276 5.49543C7.33981 5.32488 7.60338 5.23186 7.92896 5.23186C8.25454 5.23186 8.54912 5.34039 8.73516 5.52644C8.93671 5.72799 9.02974 5.99155 9.02974 6.34814C9.02974 6.65822 8.96772 6.90628 8.81268 7.12333C8.67315 7.32488 8.44059 7.63496 8.0995 8.03806C7.77392 8.34814 7.54136 8.5962 7.47935 8.76674C7.38632 8.9683 7.33981 9.29388 7.33981 9.79H8.33206C8.33206 9.47992 8.34757 9.26287 8.39408 9.12333C8.40958 8.9683 8.53361 8.81326 8.70415 8.64271C9.10726 8.27062 9.41733 7.88302 9.6654 7.52643C9.88245 7.16985 10.022 6.76675 10.022 6.33264C10.022 5.72799 9.85144 5.26287 9.46384 4.90628C9.07625 4.5652 8.56462 4.41016 7.91346 4.41016Z" fill="#0393AA" stroke="#0393AA" stroke-width="0.5"/>
  <path d="M8.34747 10.7988H7.32422V11.8376H8.34747V10.7988Z" fill="#0393AA" stroke="#0393AA" stroke-width="0.5"/>
</svg>