<svg xmlns="http://www.w3.org/2000/svg" width="39" height="28" viewBox="0 0 39 28" fill="none">
  <g opacity="0.7">
    <rect x="27.875" width="10.84" height="27.8743" fill="#F93939"/>
    <rect width="10.84" height="27.8743" fill="#249F58"/>
    <path fill-rule="evenodd" clip-rule="evenodd" d="M24.5955 13.796C24.6225 13.9878 24.6366 14.1839 24.6366 14.382C24.6366 16.9731 22.2726 19.0741 19.3573 19.0741C16.442 19.0741 14.0781 16.9731 14.0781 14.382C14.0781 14.1839 14.0922 13.9878 14.1192 13.7949C14.4442 15.5967 16.6649 16.9887 19.3573 16.9887C22.0497 16.9887 24.2705 15.5957 24.5955 13.7949V13.796Z" fill="#249F58"/>
    <ellipse cx="19.3591" cy="11.9171" rx="2.76531" ry="2.81558" fill="#AE6A3E"/>
    <rect x="27.875" width="10.84" height="27.8743" fill="#F93939"/>
    <rect x="10.8398" width="17.0343" height="27.8743" fill="white"/>
    <rect width="10.84" height="27.8743" fill="#249F58"/>
    <path fill-rule="evenodd" clip-rule="evenodd" d="M24.5955 13.796C24.6225 13.9878 24.6366 14.1839 24.6366 14.382C24.6366 16.9731 22.2726 19.0741 19.3573 19.0741C16.442 19.0741 14.0781 16.9731 14.0781 14.382C14.0781 14.1839 14.0922 13.9878 14.1192 13.7949C14.4442 15.5967 16.6649 16.9887 19.3573 16.9887C22.0497 16.9887 24.2705 15.5957 24.5955 13.7949V13.796Z" fill="#249F58"/>
    <ellipse cx="19.3591" cy="11.9171" rx="2.76531" ry="2.81558" fill="#AE6A3E"/>
  </g>
</svg>