<svg width="95" height="87" viewBox="0 0 95 87" fill="none" xmlns="http://www.w3.org/2000/svg">
<g id="Group">
<g id="Group_2">
<path id="Vector" d="M25.3356 31.6473C19.8524 31.6473 15.3921 36.1081 15.3921 41.5931C15.3921 47.0758 19.8524 51.5365 25.3356 51.5365C30.8205 51.5365 35.2808 47.0758 35.2808 41.5931C35.2808 36.1081 30.8205 31.6473 25.3356 31.6473ZM25.3356 53.1621C18.9567 53.1621 13.7656 47.9714 13.7656 41.5931C13.7656 35.2125 18.9567 30.0215 25.3356 30.0215C31.7162 30.0215 36.9064 35.2125 36.9064 41.5931C36.9064 47.9714 31.7162 53.1621 25.3356 53.1621Z" fill="#0393AA" stroke="#0393AA"/>
<path id="Vector_2" d="M71.106 9.34863C65.6211 9.34863 61.1608 13.8092 61.1608 19.2943C61.1608 24.7771 65.6211 29.2375 71.106 29.2375C76.5892 29.2375 81.0495 24.7771 81.0495 19.2943C81.0495 13.8092 76.5892 9.34863 71.106 9.34863ZM71.106 30.8633C64.7254 30.8633 59.5352 25.6726 59.5352 19.2943C59.5352 12.9138 64.7254 7.72266 71.106 7.72266C77.4849 7.72266 82.6768 12.9138 82.6768 19.2943C82.6768 25.6726 77.4849 30.8633 71.106 30.8633Z" fill="#0393AA" stroke="#0393AA"/>
<path id="Vector_3" d="M70.3217 53.3603C64.8385 53.3603 60.3756 57.8207 60.3756 63.3038C60.3756 68.7888 64.8385 73.2495 70.3217 73.2495C75.8049 73.2495 80.2668 68.7888 80.2668 63.3038C80.2668 57.8207 75.8049 53.3603 70.3217 53.3603ZM70.3217 74.8751C63.941 74.8751 58.75 69.6843 58.75 63.3038C58.75 56.9251 63.941 51.7344 70.3217 51.7344C76.7023 51.7344 81.8925 56.9251 81.8925 63.3038C81.8925 69.6843 76.7023 74.8751 70.3217 74.8751Z" fill="#0393AA" stroke="#0393AA"/>
<path id="Vector_4" d="M34.4939 36.7556C34.185 36.7556 33.8886 36.578 33.7531 36.2794C33.5662 35.8709 33.7489 35.3882 34.1572 35.2017L60.9729 23.0038C61.3812 22.8197 61.862 22.9996 62.048 23.4081C62.2349 23.8168 62.0547 24.2973 61.6464 24.4834L34.8299 36.6816C34.7204 36.7325 34.6059 36.7556 34.4939 36.7556Z" fill="#0393AA" stroke="#0393AA"/>
<path id="Vector_5" d="M59.917 61.3661C59.7983 61.3661 59.6754 61.3408 59.5609 61.2836L33.6704 48.6603C33.268 48.4633 33.1004 47.9762 33.2975 47.5721C33.4944 47.1699 33.9818 47.0005 34.3843 47.1975L60.2748 59.8231C60.6764 60.0197 60.8464 60.5069 60.6494 60.909C60.5071 61.1991 60.2176 61.3661 59.917 61.3661Z" fill="#0393AA" stroke="#0393AA"/>
<g id="Vector_6">
<path d="M89.9507 6.73613C89.8075 6.73613 89.6728 6.7489 89.5297 6.77651C88.9741 6.88676 88.5026 7.2063 88.1911 7.67622C87.8712 8.14397 87.7617 8.70731 87.8712 9.25976C88.0985 10.4006 89.2182 11.1438 90.3548 10.9173C91.4997 10.6906 92.2406 9.57712 92.0133 8.43633C91.9039 7.88152 91.584 7.40536 91.1125 7.09193C90.7672 6.85673 90.3632 6.73613 89.9507 6.73613ZM89.9422 12.5856C88.1995 12.5856 86.6336 11.3533 86.2801 9.57712C86.0864 8.59906 86.2801 7.602 86.8357 6.77227C87.3914 5.94224 88.2332 5.3769 89.2182 5.18244C90.1948 4.98713 91.1883 5.18668 92.0217 5.74142C92.8467 6.29381 93.4107 7.13861 93.6044 8.11854C94.0085 10.1382 92.6951 12.109 90.6747 12.5112C90.4305 12.5622 90.1864 12.5856 89.9422 12.5856Z" fill="#0393AA"/>
<path d="M89.3698 5.98038H89.3782M89.9507 6.73613C89.8075 6.73613 89.6728 6.7489 89.5297 6.77651C88.9741 6.88676 88.5026 7.2063 88.1911 7.67622C87.8712 8.14397 87.7617 8.70731 87.8712 9.25976C88.0985 10.4006 89.2182 11.1438 90.3548 10.9173C91.4997 10.6906 92.2406 9.57712 92.0133 8.43633C91.9039 7.88152 91.584 7.40536 91.1125 7.09193C90.7672 6.85673 90.3632 6.73613 89.9507 6.73613ZM89.9422 12.5856C88.1995 12.5856 86.6336 11.3533 86.2801 9.57712C86.0864 8.59906 86.2801 7.602 86.8357 6.77227C87.3914 5.94224 88.2332 5.3769 89.2182 5.18244C90.1948 4.98713 91.1883 5.18668 92.0217 5.74142C92.8467 6.29381 93.4107 7.13861 93.6044 8.11854C94.0085 10.1382 92.6951 12.109 90.6747 12.5112C90.4305 12.5622 90.1864 12.5856 89.9422 12.5856Z" stroke="#0393AA"/>
</g>
<path id="Vector_7" d="M81.0644 16.0415C80.8127 16.0415 80.5627 15.9251 80.4036 15.7028C80.1409 15.3386 80.2234 14.8306 80.588 14.5682L87.0923 9.89412C87.4544 9.6336 87.9596 9.71612 88.2205 10.0803C88.4899 10.4443 88.4057 10.9524 88.0353 11.2148L81.5359 15.8892C81.3928 15.9928 81.2295 16.0415 81.0644 16.0415Z" fill="#0393AA" stroke="#0393AA"/>
<path id="Vector_8" d="M55.3683 2.62416C54.6122 2.62416 53.8798 3.02404 53.49 3.73293C53.2147 4.23301 53.1491 4.81142 53.3099 5.35945C53.469 5.90941 53.8335 6.36257 54.3328 6.63785C54.8345 6.91507 55.4121 6.97858 55.9601 6.82002C56.5091 6.66116 56.9636 6.29718 57.2389 5.79723C57.8089 4.76257 57.4293 3.45843 56.3962 2.88855C56.0704 2.71086 55.7168 2.62416 55.3683 2.62416ZM55.359 8.53245C54.7327 8.53245 54.1122 8.37389 53.5489 8.06252C52.6667 7.57776 52.0268 6.77952 51.7482 5.81206C51.4687 4.84678 51.5807 3.82889 52.0656 2.94831C53.0666 1.12981 55.3616 0.464756 57.18 1.4666C57.18 1.4666 57.18 1.4666 57.1817 1.4666C59.0001 2.4676 59.6652 4.76257 58.6634 6.58058C58.1793 7.46128 57.3787 8.10061 56.4139 8.38219C56.0662 8.48172 55.711 8.53245 55.359 8.53245Z" fill="#0393AA" stroke="#0393AA"/>
<path id="Vector_9" d="M61.9673 14.4262C61.718 14.4262 61.4748 14.3141 61.3131 14.1L56.4798 7.61776C56.2138 7.25808 56.2879 6.74795 56.6473 6.47897C57.0052 6.21222 57.5154 6.28432 57.7839 6.64636L62.6171 13.1285C62.8857 13.4883 62.8125 13.9985 62.4522 14.2651C62.3065 14.3752 62.1348 14.4262 61.9673 14.4262Z" fill="#0393AA" stroke="#0393AA"/>
<path id="Vector_10" d="M83.0957 38.6473C84.1312 39.2146 85.4361 38.8378 86.0085 37.8025C86.5726 36.7695 86.2022 35.4656 85.1667 34.898C84.1312 34.3288 82.8263 34.7056 82.2538 35.7386C81.6897 36.7738 82.0685 38.0778 83.0957 38.6473ZM84.1228 40.5376C83.5081 40.5376 82.8852 40.3874 82.3127 40.07C80.4967 39.0686 79.8325 36.7738 80.8335 34.9552C81.3184 34.0746 82.1191 33.4352 83.0873 33.1537C84.047 32.8742 85.0657 32.9887 85.9496 33.4734C87.7681 34.4747 88.4332 36.7695 87.4313 38.5882C86.7494 39.8329 85.4529 40.5376 84.1228 40.5376Z" fill="#0393AA" stroke="#0393AA"/>
<path id="Vector_11" d="M82.3626 35.218C82.1185 35.218 81.8743 35.1059 81.7143 34.8902L76.8802 28.408C76.6117 28.0479 76.6858 27.5378 77.0452 27.2711C77.4056 27.0021 77.9141 27.0765 78.1826 27.4361L83.0193 33.9184C83.2802 34.2782 83.2129 34.7885 82.8508 35.0573C82.7077 35.1651 82.5309 35.218 82.3626 35.218Z" fill="#0393AA" stroke="#0393AA"/>
<path id="Vector_12" d="M78.8973 84.3604C79.932 84.93 81.236 84.5531 81.806 83.5179C82.0838 83.0183 82.1427 82.4405 81.9828 81.89C81.8228 81.3418 81.4608 80.8867 80.9608 80.6113C80.4615 80.3362 79.884 80.2707 79.3333 80.4315C78.7853 80.5903 78.3299 80.9544 78.0545 81.4539C77.4846 82.4892 77.8643 83.7931 78.8973 84.3604ZM79.9235 86.251C79.3098 86.251 78.6876 86.1007 78.1134 85.7854C76.2958 84.784 75.6282 82.4892 76.6301 80.6707C77.1167 79.79 77.9148 79.1506 78.8821 78.8691C79.8478 78.5895 80.8656 78.702 81.747 79.1887C82.6311 79.6735 83.2709 80.4716 83.5487 81.4371C83.8265 82.4043 83.7171 83.4205 83.2288 84.3035C82.5469 85.5483 81.2537 86.251 79.9235 86.251Z" fill="#0393AA" stroke="#0393AA"/>
<path id="Vector_13" d="M78.1645 80.9332C77.917 80.9332 77.6737 80.8187 77.5129 80.605L72.6797 74.1228C72.4128 73.7627 72.4868 73.2526 72.8472 72.9859C73.2067 72.717 73.7152 72.7913 73.9837 73.151L78.817 79.6332C79.0855 79.993 79.0115 80.5034 78.652 80.7701C78.5055 80.8803 78.3337 80.9332 78.1645 80.9332Z" fill="#0393AA" stroke="#0393AA"/>
<path id="Vector_14" d="M57.7142 43.3939C56.9582 43.3939 56.2258 43.7941 55.8368 44.5011C55.2668 45.5341 55.6457 46.8384 56.6787 47.4077C57.7117 47.9752 59.0166 47.5983 59.5858 46.5651C59.861 46.0636 59.9241 45.4855 59.765 44.9372C59.6067 44.389 59.2423 43.9339 58.743 43.6585C58.4172 43.4787 58.0636 43.3939 57.7142 43.3939ZM57.7033 49.2983C57.0921 49.2983 56.4691 49.148 55.8941 48.8326C54.0748 47.8312 53.4105 45.5364 54.4115 43.7158C55.4133 41.8972 57.7075 41.2326 59.526 42.234C60.4091 42.7187 61.0481 43.5188 61.3276 44.484C61.6071 45.4496 61.4951 46.4677 61.0102 47.3484C60.3249 48.5932 59.0335 49.2983 57.7033 49.2983Z" fill="#0393AA" stroke="#0393AA"/>
<path id="Vector_15" d="M64.3065 55.1946C64.059 55.1946 63.8157 55.0805 63.6549 54.8665L58.8216 48.3846C58.5531 48.0244 58.6272 47.5144 58.9867 47.2478C59.3469 46.9788 59.8571 47.0528 60.1258 47.4128L64.959 53.895C65.2275 54.2547 65.1535 54.7648 64.794 55.0339C64.6474 55.1418 64.4757 55.1946 64.3065 55.1946Z" fill="#0393AA" stroke="#0393AA"/>
<g id="Vector_16">
<path d="M86.6404 47.7021C86.2868 47.7021 85.9333 47.7928 85.6134 47.9688C85.1166 48.2441 84.7462 48.6992 84.5863 49.2475C84.4262 49.798 84.4937 50.3757 84.7715 50.8753C85.3355 51.9105 86.6404 52.2875 87.676 51.7178C88.7115 51.1486 89.0903 49.8467 88.5179 48.8114C88.24 48.3118 87.7854 47.9474 87.2382 47.7889C87.0446 47.7317 86.8425 47.7021 86.6404 47.7021ZM86.6489 53.6084C85.3187 53.6084 84.0307 52.9057 83.3487 51.6607C82.8604 50.7779 82.7509 49.7618 83.0288 48.7943C83.3066 47.8291 83.9464 47.031 84.8304 46.5462C85.706 46.0592 86.7246 45.947 87.6928 46.2265C88.661 46.5081 89.4608 47.1473 89.9406 48.028C90.9424 49.8467 90.2774 52.1414 88.4589 53.1428C87.8865 53.4582 87.2634 53.6084 86.6489 53.6084Z" fill="#0393AA"/>
<path d="M85.2177 47.2575H85.2261M86.6404 47.7021C86.2868 47.7021 85.9333 47.7928 85.6134 47.9688C85.1166 48.2441 84.7462 48.6992 84.5863 49.2475C84.4262 49.798 84.4937 50.3757 84.7715 50.8753C85.3355 51.9105 86.6404 52.2875 87.676 51.7178C88.7115 51.1486 89.0903 49.8467 88.5179 48.8114C88.24 48.3118 87.7854 47.9474 87.2382 47.7889C87.0446 47.7317 86.8425 47.7021 86.6404 47.7021ZM86.6489 53.6084C85.3187 53.6084 84.0307 52.9057 83.3487 51.6607C82.8604 50.7779 82.7509 49.7618 83.0288 48.7943C83.3066 47.8291 83.9464 47.031 84.8304 46.5462C85.706 46.0592 86.7246 45.947 87.6928 46.2265C88.661 46.5081 89.4608 47.1473 89.9406 48.028C90.9424 49.8467 90.2774 52.1414 88.4589 53.1428C87.8865 53.4582 87.2634 53.6084 86.6489 53.6084Z" stroke="#0393AA"/>
</g>
<path id="Vector_17" d="M80.0481 59.5073C79.8788 59.5073 79.7071 59.4564 79.5615 59.3465C79.2011 59.0775 79.1271 58.5694 79.3965 58.2096L84.228 51.7252C84.4975 51.3654 85.011 51.2913 85.3646 51.5601C85.7265 51.829 85.8023 52.3372 85.533 52.697L80.7005 59.1814C80.5397 59.3952 80.2956 59.5073 80.0481 59.5073Z" fill="#0393AA" stroke="#0393AA"/>
<path id="Vector_18" d="M11.2263 22.9019C10.4703 22.9019 9.73788 23.3019 9.34811 24.0089C8.77896 25.0421 9.15783 26.3461 10.1908 26.9157C11.2238 27.485 12.5279 27.1061 13.0971 26.0732C13.3723 25.5713 13.4363 24.9935 13.2772 24.4453C13.1188 23.8967 12.7544 23.4416 12.2542 23.1664C11.9285 22.9865 11.5749 22.9019 11.2263 22.9019ZM11.2154 28.806C10.6033 28.806 9.9812 28.6557 9.40532 28.3403C7.58689 27.3389 6.92177 25.0441 7.92362 23.2259C8.92462 21.405 11.2196 20.7403 13.0381 21.7418C13.9212 22.2265 14.5602 23.0269 14.8397 23.9921C15.1192 24.9597 15.0072 25.9758 14.5223 26.8565C13.8361 28.1012 12.5447 28.806 11.2154 28.806Z" fill="#0393AA" stroke="#0393AA"/>
<path id="Vector_19" d="M17.8227 34.7047C17.5752 34.7047 17.3319 34.5922 17.1712 34.3765L12.3379 27.8943C12.0685 27.5346 12.1426 27.0241 12.5029 26.7574C12.8624 26.4885 13.3725 26.5627 13.642 26.9225L18.4744 33.4046C18.7438 33.7649 18.6697 34.2749 18.3094 34.5436C18.1637 34.6518 17.992 34.7047 17.8227 34.7047Z" fill="#0393AA" stroke="#0393AA"/>
<path id="Vector_20" d="M30.9729 60.4029C30.402 60.4029 29.864 60.6252 29.4591 61.0297C29.055 61.4339 28.8328 61.972 28.8328 62.5435C28.8328 63.115 29.055 63.6504 29.4591 64.0549C29.8624 64.4591 30.3995 64.6837 30.9712 64.6837C30.9712 64.6837 30.9712 64.6837 30.9729 64.6837C31.5445 64.6837 32.0807 64.4613 32.4848 64.057C33.3191 63.2229 33.3208 61.8637 32.4865 61.0297C32.0824 60.6252 31.5445 60.4029 30.9729 60.4029ZM30.9729 66.3095C30.9712 66.3095 30.9712 66.3095 30.9712 66.3095C29.9659 66.3095 29.0197 65.9157 28.3083 65.2043C27.5986 64.4929 27.207 63.5468 27.207 62.5412C27.207 61.5355 27.5986 60.5914 28.3099 59.88C29.0214 59.169 29.9676 58.7773 30.9729 58.7773C31.9789 58.7773 32.9252 59.169 33.6365 59.88C35.1032 61.3493 35.1031 63.7395 33.634 65.2066C32.9227 65.9179 31.9763 66.3095 30.9729 66.3095Z" fill="#0393AA" stroke="#0393AA"/>
<path id="Vector_21" d="M29.9343 60.5944C29.6043 60.5944 29.2953 60.3911 29.1724 60.0652L26.3378 52.4929C26.1787 52.0716 26.3925 51.6036 26.8143 51.447C27.2335 51.2882 27.7033 51.502 27.8599 51.9232L30.6945 59.4956C30.8536 59.9149 30.6398 60.3848 30.218 60.5414C30.1254 60.5776 30.0278 60.5944 29.9343 60.5944Z" fill="#0393AA" stroke="#0393AA"/>
<g id="Vector_22">
<path d="M4.76461 44.9254C4.42624 44.9254 4.08945 45.0079 3.77796 45.1688C3.27195 45.4334 2.89731 45.8801 2.72556 46.4244C2.55465 46.9702 2.6052 47.5484 2.87037 48.0565C3.13476 48.5622 3.58095 48.9371 4.12565 49.1085C4.67119 49.2799 5.24955 49.2292 5.75719 48.9645C6.2632 48.7 6.63784 48.2555 6.80959 47.7092C6.98135 47.1652 6.9308 46.5851 6.66562 46.0771C6.40124 45.5709 5.95674 45.1964 5.41035 45.0247C5.199 44.9592 4.98099 44.9254 4.76461 44.9254ZM4.77308 50.8337C4.39167 50.8337 4.01116 50.7768 3.63653 50.6581C2.67761 50.3575 1.89377 49.6992 1.42827 48.8079C0.962698 47.9144 0.873459 46.8963 1.17653 45.9374C1.47706 44.9761 2.13546 44.193 3.027 43.7271C3.92023 43.2613 4.94054 43.1726 5.89953 43.4751C6.85839 43.7761 7.64223 44.4341 8.10779 45.3256C8.5733 46.2188 8.66169 47.237 8.35953 48.1983C8.05894 49.1572 7.40054 49.9405 6.509 50.4062C5.96261 50.6901 5.36991 50.8337 4.77308 50.8337Z" fill="#0393AA"/>
<path d="M3.40332 44.4492H3.40581M4.76461 44.9254C4.42624 44.9254 4.08945 45.0079 3.77796 45.1688C3.27195 45.4334 2.89731 45.8801 2.72556 46.4244C2.55465 46.9702 2.6052 47.5484 2.87037 48.0565C3.13476 48.5622 3.58095 48.9371 4.12565 49.1085C4.67119 49.2799 5.24955 49.2292 5.75719 48.9645C6.2632 48.7 6.63784 48.2555 6.80959 47.7092C6.98135 47.1652 6.9308 46.5851 6.66562 46.0771C6.40124 45.5709 5.95674 45.1964 5.41035 45.0247C5.199 44.9592 4.98099 44.9254 4.76461 44.9254ZM4.77308 50.8337C4.39167 50.8337 4.01116 50.7768 3.63653 50.6581C2.67761 50.3575 1.89377 49.6992 1.42827 48.8079C0.962698 47.9144 0.873459 46.8963 1.17653 45.9374C1.47706 44.9761 2.13545 44.193 3.027 43.7271C3.92023 43.2613 4.94054 43.1726 5.89953 43.4751C6.85839 43.7761 7.64223 44.4341 8.10779 45.3256C8.5733 46.2188 8.66169 47.237 8.35953 48.1983C8.05894 49.1572 7.40054 49.9405 6.509 50.4062C5.96261 50.6901 5.36991 50.8337 4.77308 50.8337Z" stroke="#0393AA"/>
</g>
<path id="Vector_23" d="M7.71413 47.719C7.28731 47.719 6.92703 47.3825 6.90342 46.9505C6.88065 46.5019 7.22332 46.1185 7.67206 46.0954L15.702 45.6636C16.1591 45.636 16.5312 45.9853 16.5573 46.4319C16.58 46.8807 16.2374 47.2639 15.7887 47.2872L7.75881 47.717C7.74446 47.719 7.72933 47.719 7.71413 47.719Z" fill="#0393AA" stroke="#0393AA"/>
<path id="Vector_24" d="M25.3322 36.8837C24.337 36.8837 23.528 37.6943 23.528 38.6895C23.528 39.6823 24.337 40.4929 25.3322 40.4929C26.3273 40.4929 27.1355 39.6823 27.1355 38.6895C27.1355 37.6943 26.3273 36.8837 25.3322 36.8837ZM25.3322 42.1188C23.4413 42.1188 21.9023 40.5798 21.9023 38.6895C21.9023 36.7969 23.4413 35.2598 25.3322 35.2598C27.2247 35.2598 28.7612 36.7969 28.7612 38.6895C28.7612 40.5798 27.2247 42.1188 25.3322 42.1188Z" fill="#0393AA"/>
<path id="Vector_25" d="M20.6342 46.3012H30.0355C29.7627 43.9491 27.7582 42.118 25.3344 42.118C22.9099 42.118 20.9079 43.9491 20.6342 46.3012ZM30.874 47.927H19.7957C19.3621 47.927 19.0044 47.5864 18.9833 47.1522C18.9791 47.0527 18.9766 46.951 18.9766 46.8494C18.9766 43.3437 21.8288 40.4922 25.3344 40.4922C28.8401 40.4922 31.6941 43.3437 31.6941 46.8494C31.6941 46.951 31.6915 47.0527 31.6847 47.1522C31.6663 47.5864 31.3084 47.927 30.874 47.927Z" fill="#0393AA"/>
<path id="Vector_26" d="M71.1034 14.5869C70.1083 14.5869 69.2975 15.3955 69.2975 16.3906C69.2975 17.3835 70.1083 18.1941 71.1034 18.1941C72.096 18.1941 72.9068 17.3835 72.9068 16.3906C72.9068 15.3955 72.096 14.5869 71.1034 14.5869ZM71.1034 19.82C69.2109 19.82 67.6719 18.2809 67.6719 16.3906C67.6719 14.498 69.2109 12.9609 71.1034 12.9609C72.9943 12.9609 74.5333 14.498 74.5333 16.3906C74.5333 18.2809 72.9943 19.82 71.1034 19.82Z" fill="#0393AA"/>
<path id="Vector_27" d="M66.4038 24.0024H75.806C75.5324 21.6504 73.5296 19.8193 71.1057 19.8193C68.682 19.8193 66.6774 21.6504 66.4038 24.0024ZM76.6437 25.6283H65.5661C65.1317 25.6283 64.7739 25.2875 64.7546 24.8535C64.7487 24.7539 64.7461 24.6522 64.7461 24.5506C64.7461 21.0449 67.5976 18.1934 71.1057 18.1934C74.6113 18.1934 77.4628 21.0449 77.4628 24.5506C77.4628 24.6522 77.4612 24.7539 77.4569 24.8535C77.4359 25.2875 77.0781 25.6283 76.6437 25.6283Z" fill="#0393AA"/>
<path id="Vector_28" d="M70.3205 58.5946C69.3254 58.5946 68.5172 59.4033 68.5172 60.3981C68.5172 61.3932 69.3254 62.2019 70.3205 62.2019C71.3156 62.2019 72.1238 61.3932 72.1238 60.3981C72.1238 59.4033 71.3156 58.5946 70.3205 58.5946ZM70.3205 63.8278C68.4297 63.8278 66.8906 62.2907 66.8906 60.3981C66.8906 58.5078 68.4297 56.9688 70.3205 56.9688C72.2106 56.9688 73.7503 58.5078 73.7503 60.3981C73.7503 62.2907 72.2106 63.8278 70.3205 63.8278Z" fill="#0393AA"/>
<path id="Vector_29" d="M65.6186 68.0121H75.0216C74.7488 65.6621 72.7443 63.829 70.3206 63.829C67.8959 63.829 65.8914 65.6621 65.6186 68.0121ZM75.8585 69.6376H64.7801C64.3482 69.6376 63.9904 69.297 63.9694 68.8652C63.9652 68.7636 63.9609 68.6639 63.9609 68.5623C63.9609 65.0566 66.8149 62.2031 70.3206 62.2031C73.8262 62.2031 76.6776 65.0566 76.6776 68.5623C76.6776 68.6619 76.676 68.7636 76.6709 68.8632C76.6523 69.297 76.2946 69.6376 75.8585 69.6376Z" fill="#0393AA"/>
</g>
</g>
</svg>
