<svg width="15" height="13" viewBox="0 0 15 13" fill="none" xmlns="http://www.w3.org/2000/svg">
<path d="M7.56802 10.2486C6.90111 10.2486 6.35838 10.7912 6.35838 11.4581C6.35838 12.1252 6.90095 12.6679 7.56802 12.6679C8.23492 12.6679 8.77749 12.1252 8.77749 11.4581C8.77765 10.7912 8.23508 10.2486 7.56802 10.2486ZM7.56802 12.0328C7.25124 12.0328 6.99353 11.7749 6.99353 11.4581C6.99353 11.1415 7.25124 10.8838 7.56802 10.8838C7.88463 10.8838 8.14234 11.1415 8.14234 11.4581C8.1425 11.7751 7.88479 12.0328 7.56802 12.0328ZM11.5394 10.2486C10.8725 10.2486 10.3299 10.7912 10.3299 11.4581C10.3299 12.1252 10.8725 12.6679 11.5394 12.6679C12.2063 12.6679 12.7491 12.1252 12.7491 11.4581C12.7489 10.7912 12.2063 10.2486 11.5394 10.2486ZM11.5394 12.0328C11.2226 12.0328 10.9651 11.7749 10.9651 11.4581C10.9651 11.1415 11.2228 10.8838 11.5394 10.8838C11.8562 10.8838 12.1139 11.1415 12.1139 11.4581C12.1137 11.7751 11.856 12.0328 11.5394 12.0328ZM14.4193 3.49928C14.3007 3.35732 14.1218 3.27586 13.928 3.27586H4.91533C4.87691 3.27586 4.83912 3.27904 4.80244 3.28507L4.38562 0.977751C4.32147 0.62477 4.00581 0.350069 3.65013 0.336573C3.64107 0.336096 3.63234 0.335938 3.62313 0.335938H0.751166C0.575866 0.335938 0.433594 0.47821 0.433594 0.65351C0.433594 0.82881 0.575866 0.971082 0.751166 0.971082H3.62123C3.62266 0.971082 3.62408 0.971241 3.62551 0.971241C3.68204 0.972988 3.75032 1.03364 3.76064 1.09112L4.28463 3.99167C4.28638 4.00517 4.28829 4.01835 4.29067 4.03121L5.2264 9.20939C5.29054 9.56316 5.60764 9.8385 5.96427 9.85072C5.97444 9.8512 5.98508 9.85136 5.99508 9.85136H12.8546C12.864 9.85136 12.8727 9.8512 12.8818 9.85072C13.2373 9.83723 13.553 9.56253 13.6171 9.20923L14.5527 4.03121C14.588 3.8367 14.5392 3.64298 14.4193 3.49928ZM13.9287 3.91117C13.9285 3.91323 13.9282 3.91561 13.9277 3.91815L13.5182 6.18467H5.32516L4.91549 3.91768C4.91517 3.91545 4.91486 3.91339 4.91454 3.91117H13.9287ZM12.857 9.2159C12.8556 9.2159 12.8542 9.21605 12.8527 9.21605H5.99047C5.9892 9.21605 5.98778 9.2159 5.98651 9.2159C5.92998 9.21415 5.86186 9.15349 5.85138 9.09601L5.43996 6.81918H13.4036L12.9923 9.09569C12.9817 9.15365 12.9134 9.21415 12.857 9.2159Z" fill="#1C1C24" stroke="#1C1C24" stroke-width="0.5"/>
</svg>
