<svg width="95" height="67" viewBox="0 0 95 67" fill="none" xmlns="http://www.w3.org/2000/svg">
<path d="M11.411 65.7648H84.0879C89.8284 65.7648 94.4989 61.0943 94.4989 55.3538C94.4989 53.1574 92.7125 51.371 90.5161 51.371H85.8872V7.50169C85.8872 3.91688 82.9704 1 79.3856 1H15.2291C11.6443 1 8.7274 3.91688 8.7274 7.50169V51.371H4.9828C2.78645 51.371 1 53.1574 1 55.3538C1 61.0943 5.67058 65.7648 11.411 65.7648ZM10.76 7.50169C10.76 5.03738 12.7648 3.03259 15.2291 3.03259H79.3856C81.8499 3.03259 83.8547 5.03738 83.8547 7.50169V51.371H81.0737V47.5495C81.0737 44.8461 79.6816 42.4048 77.4732 41.0196C78.6223 39.9274 79.3399 38.3852 79.3399 36.6784C79.3399 33.4946 76.8433 30.8836 73.7054 30.6987C73.1091 29.8053 72.3341 29.0547 71.4301 28.4882C72.5792 27.396 73.2967 25.8538 73.2967 24.147C73.2967 20.8435 70.6091 18.1564 67.3062 18.1564C64.0032 18.1564 61.3156 20.8435 61.3156 24.147C61.3156 25.8551 62.0343 27.3984 63.185 28.4906C62.7017 28.7942 62.2519 29.1506 61.8485 29.554C61.2931 30.1091 60.8262 30.7455 60.4648 31.4336C59.6069 30.9587 58.621 30.6879 57.573 30.6879C54.27 30.6879 51.5824 33.375 51.5824 36.6784C51.5824 38.3844 52.2992 39.9259 53.4473 41.0179C51.2428 42.4021 49.8535 44.8441 49.8535 47.5495V51.371H33.4479V39.04H43.6515C45.8112 39.04 47.8438 38.1974 49.3732 36.667C49.6977 36.343 49.9964 35.9887 50.2624 35.614C51.0355 34.5223 51.1239 33.1497 50.4996 31.9418C49.8575 30.6998 48.597 29.9281 47.2106 29.9281H27.8284C30.5091 29.0066 32.4406 26.4605 32.4406 23.4711V19.4848C32.4406 15.7209 29.3788 12.6591 25.6143 12.6591C21.8509 12.6591 18.7891 15.7209 18.7891 19.4848V23.4711C18.7891 26.4605 20.7206 29.0066 23.4007 29.9281H21.576C17.1475 29.9281 13.5439 33.5313 13.5439 37.9607V51.371H10.76V7.50169ZM61.6978 41.0188C62.8464 39.9267 63.5635 38.3848 63.5635 36.6784C63.5635 35.1747 63.0065 33.7988 62.0882 32.7459C62.3709 32.0979 62.7777 31.499 63.2856 30.9911C63.8234 30.4538 64.4728 30.0284 65.18 29.7474C65.8411 29.9992 66.5578 30.1375 67.3062 30.1375C68.0552 30.1375 68.7725 29.999 69.4341 29.7467C70.1675 30.0374 70.8229 30.4738 71.3645 31.0263C69.034 31.8471 67.3588 34.0705 67.3588 36.6784C67.3588 38.3854 68.0764 39.9278 69.2258 41.0199C67.0177 42.4052 65.6259 44.8464 65.6259 47.5495V51.371H65.2904V47.5495C65.2904 44.8446 63.9017 42.403 61.6978 41.0188ZM51.8861 51.371V47.5495C51.8861 45.2045 53.3002 43.1293 55.4406 42.2765C56.1035 42.5298 56.8222 42.669 57.573 42.669C58.3233 42.669 59.0418 42.5299 59.7043 42.2768C61.8442 43.1299 63.2579 45.2049 63.2579 47.5495V51.371H51.8861ZM58.7994 53.4036L56.5626 56.4004H38.051L35.8149 53.4036H58.7994ZM53.615 36.6784C53.615 34.496 55.3905 32.7204 57.573 32.7204C59.7554 32.7204 61.531 34.496 61.531 36.6784C61.531 38.8609 59.7554 40.6364 57.573 40.6364C55.3905 40.6364 53.615 38.8609 53.615 36.6784ZM63.3482 24.147C63.3482 21.9645 65.1237 20.189 67.3062 20.189C69.4886 20.189 71.2641 21.9645 71.2641 24.147C71.2641 26.3294 69.4886 28.1049 67.3062 28.1049C65.1237 28.1049 63.3482 26.3294 63.3482 24.147ZM73.3493 32.7204C75.5318 32.7204 77.3073 34.496 77.3073 36.6784C77.3073 38.8609 75.5318 40.6364 73.3493 40.6364C71.1669 40.6364 69.3913 38.8609 69.3913 36.6784C69.3913 34.496 71.1669 32.7204 73.3493 32.7204ZM67.6585 47.5495C67.6585 45.2078 69.0759 43.133 71.2205 42.2778C71.8824 42.5302 72.5999 42.669 73.3493 42.669C74.099 42.669 74.8166 42.5302 75.4786 42.2776C77.6234 43.1327 79.0412 45.2076 79.0412 47.5495V51.371H67.6585V47.5495ZM19.6476 41.2488V51.3685H15.5765V37.9607C15.5765 34.6523 18.268 31.9607 21.576 31.9607H47.2106C47.9559 31.9607 48.465 32.4331 48.6943 32.8758C48.8233 33.1249 49.0724 33.7769 48.604 34.4389C48.4045 34.7203 48.1792 34.9863 47.9361 35.2299C46.7897 36.3762 45.2683 37.0074 43.6515 37.0074H33.4479V35.7783H31.4153V51.3685H21.6802V41.2488H19.6476ZM25.6143 28.2642C22.9714 28.2642 20.8217 26.114 20.8217 23.4711V19.4848C20.8217 16.8419 22.9714 14.6917 25.6143 14.6917C28.2573 14.6917 30.408 16.8419 30.408 19.4848V23.4711C30.408 26.114 28.2573 28.2642 25.6143 28.2642ZM4.9828 53.4036H33.2782L36.7271 58.0245L37.5419 58.4329H57.0728L57.8876 58.0245L61.3364 53.4036H90.5161C91.591 53.4036 92.4663 54.2785 92.4663 55.3538C92.4663 59.9738 88.7078 63.7323 84.0879 63.7323H11.411C6.79108 63.7323 3.03259 59.9738 3.03259 55.3538C3.03259 54.2785 3.90795 53.4036 4.9828 53.4036Z" fill="#0393AA" stroke="#0393AA"/>
<path d="M48.7867 6.89062H45.8262V8.92321H48.7867V6.89062Z" fill="#0393AA" stroke="#0393AA"/>
<path d="M72.7146 57.5488H68.4062V59.5814H72.7146V57.5488Z" fill="#0393AA" stroke="#0393AA"/>
<path d="M80.4685 57.5527H76.1602V59.5853H80.4685V57.5527Z" fill="#0393AA" stroke="#0393AA"/>
</svg>
