<svg width="16" height="17" viewBox="0 0 16 17" fill="none" xmlns="http://www.w3.org/2000/svg">
<path d="M15.3649 6.45468C14.6685 3.78518 12.5213 1.63796 9.82273 0.970588C7.12421 0.303212 4.19356 1.1737 2.33651 3.26288C0.0442156 5.81632 -0.245948 9.64648 1.6111 12.5481C1.46602 13.5927 1.34995 14.6373 1.20487 15.6819C1.14684 16.0591 1.6111 16.3202 1.93028 16.2332C2.94585 15.943 3.99044 15.6819 5.00601 15.3917C7.76257 16.5234 10.9544 16.0011 13.1596 13.9699C15.2198 12.0839 16.0612 9.12419 15.3649 6.45468ZM13.3337 12.0548C11.5927 14.6083 8.1688 15.5658 5.35421 14.2891C5.35421 14.2891 5.35421 14.2891 5.32519 14.2891C5.20913 14.2311 5.06405 14.2021 4.88995 14.2311C4.07749 14.4632 3.26503 14.6663 2.45257 14.8984C2.53962 14.2021 2.62667 13.5347 2.71372 12.8383C2.74274 12.6062 2.80077 12.345 2.6847 12.1129C2.59766 11.9678 2.48159 11.8227 2.39454 11.6486C2.19143 11.3004 2.01733 10.9232 1.87225 10.546C1.40798 9.21124 1.37897 7.7314 1.81421 6.39665C2.56864 4.04632 4.71585 2.27632 7.15322 1.98616C9.67765 1.63796 12.2021 2.85665 13.5078 4.97485C14.8426 7.15107 14.7555 9.93664 13.3337 12.0548Z" fill="#1C1C24"/>
<path d="M12.0284 9.32594L10.7227 8.31037C10.3164 7.99119 9.76512 8.04922 9.41693 8.39742L9.03971 8.77463C8.74955 8.60053 8.4884 8.39742 8.22725 8.16529C7.99512 7.93316 7.79201 7.64299 7.61791 7.35283L7.99512 6.97562C8.34332 6.62742 8.37234 6.07611 8.08217 5.66988L7.0666 4.33513C6.86349 4.04496 6.54431 3.87087 6.19611 3.87087C5.84791 3.84185 5.49972 3.98693 5.26759 4.21906L4.13595 5.3507C3.49759 5.98906 3.35251 6.97562 3.75873 7.78808C4.31005 8.83266 5.00644 9.76119 5.8189 10.5736C6.63135 11.3861 7.58889 12.0825 8.60447 12.6338C8.92365 12.8079 9.24283 12.8659 9.56201 12.8659C10.0843 12.8659 10.6356 12.6628 11.0128 12.2566L12.1445 11.125C12.3766 10.8928 12.5217 10.5446 12.4927 10.1964C12.4927 9.84824 12.3186 9.52906 12.0284 9.32594ZM11.332 10.3125L10.2004 11.4441C9.9102 11.7343 9.47496 11.7923 9.12676 11.6182C8.19824 11.125 7.35676 10.5156 6.60234 9.76119C5.84791 9.00676 5.23857 8.16529 4.74529 7.23676C4.57119 6.88857 4.62923 6.45332 4.91939 6.16316L6.05103 5.03152C6.05103 5.03152 6.05103 5.03152 6.08004 5.03152C6.10906 5.03152 6.10906 5.03152 6.10906 5.06054L7.03758 6.27922L6.66037 6.62742C6.37021 6.91758 6.28316 7.38185 6.48627 7.75906C6.7184 8.22332 7.03758 8.62955 7.38578 8.97775C7.73398 9.32594 8.14021 9.64512 8.60447 9.87725C8.98168 10.0804 9.41693 9.99332 9.70709 9.70316L10.1133 9.29693L11.303 10.2255C11.303 10.2255 11.332 10.2255 11.332 10.2545C11.332 10.2835 11.332 10.3125 11.332 10.3125Z" fill="#1C1C24"/>
</svg>
