<svg width="93" height="86" viewBox="0 0 93 86" fill="none" xmlns="http://www.w3.org/2000/svg">
<path d="M87.9833 15.2664H69.2846V4.87823C69.2846 2.80061 67.6225 1 65.4064 1H27.4551C25.3775 1 23.5769 2.6621 23.5769 4.87823V15.2664H4.87823C2.80061 15.2664 1 16.9285 1 19.1446V70.9467C1 73.0243 2.6621 74.825 4.87823 74.825H34.9346L29.6712 82.7199H24.1309V84.7976H68.8691V82.7199H63.3288L58.0654 74.825H88.1218C90.1994 74.825 92 73.1629 92 70.9467V19.0061C91.8615 16.9285 90.0609 15.2664 87.9833 15.2664ZM25.6545 4.87823C25.6545 3.90868 26.4855 3.07763 27.4551 3.07763H65.5449C66.5145 3.07763 67.3455 3.90868 67.3455 4.87823V53.3562H25.793V4.87823H25.6545ZM4.87823 17.344H23.5769V53.3562H17.898V55.4338H23.5769H69.2846H74.9635V53.3562H69.2846V17.344H87.9833C88.9528 17.344 89.7839 18.175 89.7839 19.1446V66.2374H3.21613V19.1446C3.21613 18.175 3.90868 17.344 4.87823 17.344ZM60.6971 82.5814H32.1644L37.4277 74.6864H55.4338L60.6971 82.5814ZM87.9833 72.6088H4.87823C3.90868 72.6088 3.21613 71.7778 3.21613 70.8082V68.1766H89.7839V70.8082C89.7839 71.7778 88.9528 72.6088 87.9833 72.6088Z" fill="#0393AA" stroke="#0393AA" stroke-width="0.5"/>
<path d="M63.4669 39.5059H28.8398V41.5835H63.4669V39.5059Z" fill="#0393AA" stroke="#0393AA" stroke-width="0.5"/>
<path d="M56.8187 45.3184H35.627V47.396H56.8187V45.3184Z" fill="#0393AA" stroke="#0393AA" stroke-width="0.5"/>
<path d="M40.6133 13.4688V26.627L53.6331 19.9786L40.6133 13.4688ZM42.6909 16.9315L49.0623 20.1172L42.6909 23.3028V16.9315Z" fill="#0393AA" stroke="#0393AA" stroke-width="0.5"/>
<path d="M59.7284 7.64648H33.1348V32.578H59.7284V7.64648ZM57.6507 30.5004H35.2124V9.72411H57.6507V30.5004Z" fill="#0393AA" stroke="#0393AA" stroke-width="0.5"/>
</svg>
