<svg width="11" height="14" viewBox="0 0 11 14" fill="none" xmlns="http://www.w3.org/2000/svg">
<path d="M9.66315 12.625H1.33441C1.22396 12.625 1.11804 12.6645 1.03994 12.7348C0.961843 12.8052 0.917969 12.9005 0.917969 13C0.917969 13.0995 0.961843 13.1948 1.03994 13.2652C1.11804 13.3355 1.22396 13.375 1.33441 13.375H9.66315C9.7736 13.375 9.87952 13.3355 9.95762 13.2652C10.0357 13.1948 10.0796 13.0995 10.0796 13C10.0796 12.9005 10.0357 12.8052 9.95762 12.7348C9.87952 12.6645 9.7736 12.625 9.66315 12.625Z" fill="#13131A" stroke="#13131A"/>
<path d="M5.2028 11.7654C5.22216 11.7827 5.24336 11.7983 5.2661 11.8119L5.29774 11.8269L5.33772 11.8464L5.37937 11.8584L5.41601 11.8674C5.47095 11.8777 5.52765 11.8777 5.58259 11.8674L5.61923 11.8584L5.66088 11.8464L5.70086 11.8269L5.73251 11.8119C5.75524 11.7983 5.77644 11.7827 5.7958 11.7654L9.9152 8.04993C9.98134 7.97801 10.0153 7.88646 10.0104 7.79319C10.0056 7.69991 9.96225 7.61163 9.88892 7.5456C9.8156 7.47957 9.71756 7.44055 9.61398 7.43618C9.51039 7.4318 9.40872 7.46238 9.32886 7.52194L5.91407 10.5999V0.999997C5.91407 0.900541 5.8702 0.805159 5.7921 0.734834C5.714 0.664508 5.60808 0.625 5.49763 0.625C5.38719 0.625 5.28127 0.664508 5.20317 0.734834C5.12507 0.805159 5.0812 0.900541 5.0812 0.999997V10.5999L1.66641 7.52194C1.58654 7.46238 1.48488 7.4318 1.38129 7.43618C1.27771 7.44055 1.17967 7.47957 1.10635 7.5456C1.03302 7.61163 0.989693 7.69991 0.984833 7.79319C0.979973 7.88646 1.01393 7.97801 1.08007 8.04993L5.2028 11.7654Z" fill="#13131A" stroke="#13131A"/>
</svg>
