<svg width="14" height="15" viewBox="0 0 14 15" fill="none" xmlns="http://www.w3.org/2000/svg">
<path d="M6.99225 0.5C3.13178 0.5 0 3.63178 0 7.49225C0 11.3527 3.13178 14.5 6.99225 14.5C10.8527 14.5 14 11.3527 14 7.49225C14 3.63178 10.8527 0.5 6.99225 0.5ZM6.99225 13.3837C3.75194 13.3837 1.11628 10.7481 1.11628 7.47674C1.11628 4.23643 3.75194 1.60078 6.99225 1.60078C10.2481 1.60078 12.8992 4.23643 12.8992 7.47674C12.8837 10.7481 10.2481 13.3837 6.99225 13.3837Z" fill="#13131A"/>
<path d="M6.91346 3.91016C6.2933 3.91016 5.79718 4.0652 5.40958 4.39078C5.00648 4.70085 4.83594 5.15047 4.83594 5.6776L4.85144 5.72411H5.81268C5.81268 5.39853 5.92121 5.15047 6.12276 4.99543C6.33981 4.82488 6.60338 4.73186 6.92896 4.73186C7.25454 4.73186 7.54912 4.84039 7.73516 5.02644C7.93671 5.22799 8.02974 5.49155 8.02974 5.84814C8.02974 6.15822 7.96772 6.40628 7.81268 6.62333C7.67315 6.82488 7.44059 7.13496 7.0995 7.53806C6.77392 7.84814 6.54136 8.0962 6.47935 8.26674C6.38632 8.4683 6.33981 8.79388 6.33981 9.29H7.33206C7.33206 8.97992 7.34757 8.76287 7.39408 8.62333C7.40958 8.4683 7.53361 8.31326 7.70415 8.14271C8.10726 7.77062 8.41733 7.38302 8.6654 7.02643C8.88245 6.66985 9.02198 6.26675 9.02198 5.83264C9.02198 5.22799 8.85144 4.76287 8.46384 4.40628C8.07625 4.0652 7.56462 3.91016 6.91346 3.91016Z" fill="#13131A"/>
<path d="M7.34747 10.2969H6.32422V11.3356H7.34747V10.2969Z" fill="#13131A"/>
</svg>
