<svg width="96" height="80" viewBox="0 0 96 80" fill="none" xmlns="http://www.w3.org/2000/svg">
<path d="M92.1274 1H3.88299C2.29525 1 1 2.29509 1 3.90605V63.2063C1 64.8067 2.29525 66.1123 3.88299 66.1123H21.4734H35.3451V73.9565H25.1502C24.722 73.9565 24.3668 74.3145 24.3668 74.7462C24.3668 75.1779 24.722 75.5359 25.1502 75.5359H70.8497C71.278 75.5359 71.6331 75.1779 71.6331 74.7462C71.6331 74.3145 71.278 73.9565 70.8497 73.9565H60.6548V66.1123H74.5266H92.117C93.7047 66.1123 94.9999 64.8067 94.9999 63.2063V3.90605C95.0104 2.29509 93.7151 1 92.1274 1ZM34.8542 54.1828C34.9273 54.1828 35.0109 54.1828 35.084 54.1933C36.2748 54.3197 37.1522 55.4147 37.0269 56.6361C36.9642 57.2257 36.6822 57.7627 36.2226 58.1312C35.7734 58.4997 35.1989 58.6682 34.6348 58.605C33.444 58.4787 32.5666 57.3836 32.6919 56.1623C32.7546 55.5726 33.0367 55.0356 33.4963 54.6671C33.8827 54.3512 34.3632 54.1828 34.8542 54.1828ZM34.4781 52.6245C33.7574 52.6982 33.0784 52.9719 32.5039 53.4457C31.7205 54.088 31.2296 54.9935 31.1251 56.0043C30.9057 58.0891 32.3995 59.9633 34.4572 60.1739C34.593 60.1844 34.7184 60.1949 34.8542 60.1949C35.7003 60.1949 36.5255 59.9001 37.194 59.3526C37.9774 58.7103 38.4684 57.8048 38.5728 56.794C38.7608 54.9935 37.664 53.351 36.0241 52.7929L37.5596 40.8739C38.2699 40.6844 38.8548 40.537 39.304 40.4212C39.7427 43.7484 42.2183 46.6123 42.3332 46.7387C42.4795 46.9071 42.6988 47.0019 42.9182 47.0019C42.9286 47.0019 42.9391 47.0019 42.96 47.0019C43.2002 46.9914 43.4196 46.8755 43.5554 46.6755C43.5658 46.6544 44.2552 45.7279 45.3207 44.7381L47.0024 47.0651L44.5581 64.5329H22.2881C22.4761 59.142 23.4894 47.1809 26.3828 45.1066C28.4197 43.6536 32.6606 42.2532 35.9196 41.3267L34.4781 52.6245ZM35.5123 16.4357C35.5123 14.1404 35.9092 10.8132 39.3145 8.402C41.602 6.78051 43.2107 7.44384 43.2629 7.4649C43.4614 7.55967 43.6912 7.55967 43.8896 7.47543C49.008 5.34854 53.604 6.06453 57.5525 9.59179C59.5789 11.4028 60.6861 13.9825 60.6861 16.8569C60.6861 18.152 60.3519 19.3313 60.0385 20.1525C59.7983 19.9841 59.5476 19.8577 59.276 19.8156C59.2655 19.8156 59.2447 19.8156 59.2342 19.8051C59.0775 19.784 58.9417 19.8156 58.8164 19.8788C58.5657 17.7624 57.3749 13.7824 52.1312 12.9085C48.7886 12.3504 47.0964 13.5402 45.446 14.6879C43.6807 15.9198 42.0303 17.0886 37.9356 16.0883C37.7058 16.0356 37.4656 16.0883 37.2776 16.2252C37.0895 16.3726 36.9746 16.5937 36.9746 16.8359C36.9746 16.9096 36.9329 18.4468 37.1 19.8472C37.0895 19.8472 37.0791 19.8367 37.0686 19.8367C36.9537 19.8051 36.8388 19.7945 36.7135 19.8156C36.5255 19.8472 36.3375 19.9209 36.1599 20.0157C35.8674 19.1102 35.5123 17.7729 35.5123 16.4357ZM36.8702 21.416C38.0088 21.7109 38.3639 21.395 38.4997 21.2686C38.7399 21.0475 38.8444 20.7211 38.7817 20.3842C38.625 19.605 38.5728 18.5732 38.5624 17.8361C42.657 18.5837 44.6208 17.2149 46.3652 15.9935C47.8798 14.9301 49.1855 14.014 51.891 14.4773C57.6465 15.4355 57.3436 20.8685 57.3227 21.1002C57.3018 21.3844 57.4376 21.6582 57.6674 21.8161C57.9076 21.9741 58.2105 21.9951 58.4612 21.8583L59.2029 21.4687C59.5371 21.7424 60.0699 22.5848 60.0699 23.7535C60.0699 25.8383 58.8373 26.0594 58.7537 26.0805C58.3986 26.0805 58.0852 26.3226 57.9912 26.6701C56.6855 31.6925 52.8311 36.7781 47.9843 36.7781C43.1375 36.7781 39.2831 31.6925 37.9774 26.6701C37.8834 26.3226 37.6327 26.0805 37.2776 26.0805C37.1418 26.0594 35.9092 25.8383 35.9092 23.7535C35.9301 22.5005 36.5464 21.6266 36.8702 21.416ZM48.0052 51.2767L49.875 64.5329H46.1459L48.0052 51.2767ZM48.0052 45.7805L46.5533 43.7694C47.0024 43.443 47.4934 43.1587 48.0052 42.9271C48.517 43.1587 49.008 43.443 49.4571 43.7694L48.0052 45.7805ZM48.0052 38.3469C50.1048 38.3469 52.0372 37.5572 53.7085 36.2832V37.6625C53.5205 37.831 53.3324 38.01 53.1131 38.2206C51.7656 39.5051 49.9272 41.274 48.0052 41.274C46.0832 41.274 44.2448 39.5157 42.8973 38.2206C42.6779 38.01 42.4899 37.831 42.3019 37.6625V36.2832C43.9732 37.5572 45.9056 38.3469 48.0052 38.3469ZM41.5811 39.1366C41.6647 39.2103 41.7378 39.284 41.8214 39.3577C42.8346 40.3264 44.203 41.6425 45.8116 42.348C44.5581 43.2009 43.5554 44.2432 42.9391 44.9487C42.187 43.8958 40.9544 41.8637 40.8291 39.7789L41.5811 39.1366ZM50.2092 42.3585C51.8178 41.6531 53.1862 40.3369 54.1994 39.3683C54.283 39.284 54.3561 39.2208 54.4397 39.1471L55.1918 39.7999C55.0664 41.8847 53.8338 43.9168 53.0818 44.9698C52.4655 44.2538 51.4627 43.2114 50.2092 42.3585ZM59.088 73.9671H36.9224V66.1123H59.0984V73.9671H59.088ZM51.4522 64.5329L48.9975 47.0756L50.6793 44.7486C51.7552 45.7384 52.4341 46.665 52.4446 46.686C52.5804 46.8755 52.7997 47.0019 53.04 47.0124C53.0504 47.0124 53.0609 47.0124 53.0818 47.0124C53.3011 47.0124 53.5205 46.9177 53.6667 46.7492C53.7816 46.6228 56.2572 43.7589 56.6959 40.4317C57.1555 40.5475 57.7614 40.6949 58.4821 40.895L59.0462 47.4968C53.4578 51.0451 53.3116 55.341 53.7816 60.9741C53.7712 61.1741 53.8129 61.4163 53.9801 61.6374C54.2726 62.027 54.7844 62.206 55.6618 62.206C55.8185 62.206 55.9961 62.1955 56.1736 62.1849C56.4035 62.5008 56.7168 62.6798 57.0197 62.7009C57.0406 62.7009 57.0615 62.7009 57.0824 62.7009C57.4898 62.7009 57.8345 62.385 57.8658 61.9743C57.8867 61.6479 57.7092 61.3531 57.4376 61.2057C57.6987 61.0057 57.8136 60.6687 57.7196 60.3318C57.5942 59.9106 57.1451 59.6895 56.7377 59.8159C56.4243 59.9106 56.1319 60.1949 55.9752 60.6056C55.6723 60.6161 55.4633 60.6161 55.3276 60.595C54.8993 55.2989 55.0873 51.7927 60.0281 48.7287C65.418 50.8661 66.191 54.2881 66.661 59.5737C66.5357 59.6158 66.3268 59.6579 66.0238 59.7001C65.8045 59.321 65.4598 59.0999 65.136 59.0578C64.6973 59.0051 64.3108 59.3105 64.2585 59.7422C64.2168 60.0791 64.3943 60.395 64.6764 60.5424C64.4257 60.7319 64.3003 61.0583 64.3839 61.3742C64.4779 61.7322 64.7913 61.9638 65.136 61.9638C65.1986 61.9638 65.2718 61.9533 65.3344 61.9428C65.6269 61.8691 65.8985 61.6269 66.0761 61.2794C67.2564 61.1425 67.8936 60.8583 68.1443 60.3529C68.2697 60.1107 68.2697 59.8685 68.2279 59.6685C67.7369 53.9827 66.8595 49.7395 60.5817 47.2651L60.0803 41.3372C63.3289 42.2638 67.5802 43.6641 69.6067 45.1172C72.5001 47.1914 73.5133 59.1525 73.7014 64.5435H51.4522V64.5329ZM93.4435 63.2063C93.4435 63.9433 92.8481 64.5329 92.1274 64.5329H75.2891C75.1637 60.7424 74.4117 46.6018 70.5363 43.8221C66.9953 41.2846 57.8345 39.0629 56.3617 38.7154L55.2753 37.7783V35.1987C55.2753 35.1039 55.2544 35.0092 55.2231 34.9249C57.166 32.9033 58.6284 30.2289 59.4013 27.5229C60.2997 27.2176 61.6471 26.2489 61.6471 23.743C61.6471 22.9533 61.4591 22.1952 61.1666 21.5529C61.5531 20.7211 62.2634 18.9206 62.2634 16.8464C62.2634 13.5086 60.9577 10.5078 58.597 8.402C54.2308 4.50621 49.1751 3.66388 43.5658 5.89606C42.7928 5.67495 40.8291 5.39066 38.4161 7.09638C35.4078 9.22327 33.9454 12.2662 33.9454 16.4147C33.9454 18.4679 34.6348 20.4263 34.9795 21.2897C34.6035 21.9846 34.3632 22.848 34.3632 23.743C34.3632 26.2384 35.7107 27.2071 36.609 27.5229C37.3925 30.2289 38.8444 32.9033 40.7873 34.9249C40.7559 35.0092 40.7351 35.1039 40.7351 35.1987V37.7783L39.6487 38.7154C38.1654 39.0629 29.0151 41.2846 25.474 43.8221C21.5883 46.6018 20.8466 60.7424 20.7213 64.5329H3.88299C3.15179 64.5329 2.56684 63.9328 2.56684 63.2063V3.90605C2.56684 3.16901 3.16224 2.57937 3.88299 2.57937H92.1274C92.8586 2.57937 93.4435 3.17954 93.4435 3.90605V63.2063ZM76.365 78.2103C76.365 78.642 76.0098 79 75.5816 79H20.4288C20.0005 79 19.6454 78.642 19.6454 78.2103C19.6454 77.7786 20.0005 77.4206 20.4288 77.4206H75.5816C76.0098 77.4206 76.365 77.7786 76.365 78.2103Z" fill="#0393AA" stroke="#0393AA"/>
</svg>
